<mxfile host="app.diagrams.net" modified="2022-12-03T09:50:23.775Z" agent="5.0 (Windows NT 10.0; Win64; x64) AppleWebKit/537.36 (KHTML, like Gecko) Chrome/107.0.0.0 Safari/537.36" version="20.6.0" etag="1mgYyRct56DlFfkTunl3" type="github">
  <diagram id="Pt_l6PC0vm5KSgKpGdIN" name="Page-1">
    <mxGraphModel dx="1240" dy="643" grid="0" gridSize="10" guides="1" tooltips="1" connect="1" arrows="1" fold="1" page="1" pageScale="1" pageWidth="850" pageHeight="1100" math="0" shadow="0">
      <root>
        <mxCell id="0" />
        <mxCell id="1" parent="0" />
        <mxCell id="XQlcI28_08daEvwIUnFz-4" value="" style="rounded=0;whiteSpace=wrap;html=1;" vertex="1" parent="1">
          <mxGeometry x="100" y="280" width="200" height="170" as="geometry" />
        </mxCell>
        <mxCell id="XQlcI28_08daEvwIUnFz-30" value="Sever" style="verticalAlign=top;align=left;spacingTop=8;spacingLeft=2;spacingRight=12;shape=cube;size=10;direction=south;fontStyle=4;html=1;" vertex="1" parent="1">
          <mxGeometry x="440.5" y="180" width="214" height="146" as="geometry" />
        </mxCell>
        <mxCell id="XQlcI28_08daEvwIUnFz-25" value="" style="group" vertex="1" connectable="0" parent="1">
          <mxGeometry x="116.65" y="110" width="170.21000000000004" height="140" as="geometry" />
        </mxCell>
        <mxCell id="XQlcI28_08daEvwIUnFz-2" value="" style="rounded=0;whiteSpace=wrap;html=1;" vertex="1" parent="XQlcI28_08daEvwIUnFz-25">
          <mxGeometry width="170" height="110" as="geometry" />
        </mxCell>
        <mxCell id="XQlcI28_08daEvwIUnFz-3" value="Finance side" style="text;html=1;strokeColor=none;fillColor=none;align=center;verticalAlign=middle;whiteSpace=wrap;rounded=0;" vertex="1" parent="XQlcI28_08daEvwIUnFz-25">
          <mxGeometry x="45" y="110" width="80" height="30" as="geometry" />
        </mxCell>
        <mxCell id="XQlcI28_08daEvwIUnFz-6" value="" style="sketch=0;pointerEvents=1;shadow=0;dashed=0;html=1;strokeColor=none;fillColor=#505050;labelPosition=center;verticalLabelPosition=bottom;verticalAlign=top;outlineConnect=0;align=center;shape=mxgraph.office.devices.lcd_monitor;" vertex="1" parent="XQlcI28_08daEvwIUnFz-25">
          <mxGeometry x="100" y="20" width="60.42" height="50" as="geometry" />
        </mxCell>
        <mxCell id="XQlcI28_08daEvwIUnFz-7" value="" style="sketch=0;pointerEvents=1;shadow=0;dashed=0;html=1;strokeColor=none;fillColor=#505050;labelPosition=center;verticalLabelPosition=bottom;verticalAlign=top;outlineConnect=0;align=center;shape=mxgraph.office.devices.printer;" vertex="1" parent="XQlcI28_08daEvwIUnFz-25">
          <mxGeometry x="10" y="25" width="47.66" height="40" as="geometry" />
        </mxCell>
        <mxCell id="XQlcI28_08daEvwIUnFz-8" value="" style="endArrow=classic;startArrow=classic;html=1;rounded=0;" edge="1" parent="XQlcI28_08daEvwIUnFz-25" source="XQlcI28_08daEvwIUnFz-7" target="XQlcI28_08daEvwIUnFz-6">
          <mxGeometry width="50" height="50" relative="1" as="geometry">
            <mxPoint x="280" y="140" as="sourcePoint" />
            <mxPoint x="330" y="90" as="targetPoint" />
          </mxGeometry>
        </mxCell>
        <mxCell id="XQlcI28_08daEvwIUnFz-10" value="computer" style="text;html=1;strokeColor=none;fillColor=none;align=center;verticalAlign=middle;whiteSpace=wrap;rounded=0;" vertex="1" parent="XQlcI28_08daEvwIUnFz-25">
          <mxGeometry x="90.21000000000001" y="70" width="80" height="30" as="geometry" />
        </mxCell>
        <mxCell id="XQlcI28_08daEvwIUnFz-11" value="printer" style="text;html=1;strokeColor=none;fillColor=none;align=center;verticalAlign=middle;whiteSpace=wrap;rounded=0;" vertex="1" parent="XQlcI28_08daEvwIUnFz-25">
          <mxGeometry x="1.4210854715202004e-14" y="65" width="80" height="30" as="geometry" />
        </mxCell>
        <mxCell id="XQlcI28_08daEvwIUnFz-31" value="" style="sketch=0;shadow=0;dashed=0;html=1;strokeColor=none;labelPosition=center;verticalLabelPosition=bottom;verticalAlign=top;outlineConnect=0;align=center;shape=mxgraph.office.databases.database_mini_3;fillColor=#DA4026;" vertex="1" parent="1">
          <mxGeometry x="580" y="214.5" width="55" height="77" as="geometry" />
        </mxCell>
        <mxCell id="XQlcI28_08daEvwIUnFz-33" value="Database" style="text;html=1;strokeColor=none;fillColor=none;align=center;verticalAlign=middle;whiteSpace=wrap;rounded=0;" vertex="1" parent="1">
          <mxGeometry x="575" y="291.5" width="60" height="30" as="geometry" />
        </mxCell>
        <mxCell id="XQlcI28_08daEvwIUnFz-34" value="" style="shape=cube;whiteSpace=wrap;html=1;boundedLbl=1;backgroundOutline=1;darkOpacity=0.05;darkOpacity2=0.1;size=10;" vertex="1" parent="1">
          <mxGeometry x="460" y="220" width="80" height="90" as="geometry" />
        </mxCell>
        <mxCell id="XQlcI28_08daEvwIUnFz-35" value="Web server" style="text;html=1;strokeColor=none;fillColor=none;align=center;verticalAlign=middle;whiteSpace=wrap;rounded=0;" vertex="1" parent="1">
          <mxGeometry x="475" y="250" width="60" height="30" as="geometry" />
        </mxCell>
        <mxCell id="XQlcI28_08daEvwIUnFz-36" value="" style="endArrow=classic;startArrow=classic;html=1;rounded=0;" edge="1" parent="1" source="XQlcI28_08daEvwIUnFz-6">
          <mxGeometry width="50" height="50" relative="1" as="geometry">
            <mxPoint x="390" y="330" as="sourcePoint" />
            <mxPoint x="437" y="247" as="targetPoint" />
          </mxGeometry>
        </mxCell>
        <mxCell id="XQlcI28_08daEvwIUnFz-37" value="" style="endArrow=classic;startArrow=classic;html=1;rounded=0;entryX=0.685;entryY=1.002;entryDx=0;entryDy=0;entryPerimeter=0;" edge="1" parent="1" source="XQlcI28_08daEvwIUnFz-9" target="XQlcI28_08daEvwIUnFz-30">
          <mxGeometry width="50" height="50" relative="1" as="geometry">
            <mxPoint x="296.6500000000001" y="175" as="sourcePoint" />
            <mxPoint x="450" y="290" as="targetPoint" />
          </mxGeometry>
        </mxCell>
        <mxCell id="XQlcI28_08daEvwIUnFz-5" value="Cashier side" style="text;html=1;strokeColor=none;fillColor=none;align=center;verticalAlign=middle;whiteSpace=wrap;rounded=0;" vertex="1" parent="1">
          <mxGeometry x="157.66000000000003" y="450" width="80" height="30" as="geometry" />
        </mxCell>
        <mxCell id="XQlcI28_08daEvwIUnFz-9" value="" style="sketch=0;pointerEvents=1;shadow=0;dashed=0;html=1;strokeColor=none;fillColor=#505050;labelPosition=center;verticalLabelPosition=bottom;verticalAlign=top;outlineConnect=0;align=center;shape=mxgraph.office.devices.lcd_monitor;" vertex="1" parent="1">
          <mxGeometry x="170" y="304" width="60.42" height="50" as="geometry" />
        </mxCell>
        <mxCell id="XQlcI28_08daEvwIUnFz-12" value="computer" style="text;html=1;strokeColor=none;fillColor=none;align=center;verticalAlign=middle;whiteSpace=wrap;rounded=0;" vertex="1" parent="1">
          <mxGeometry x="160.21" y="280" width="80" height="30" as="geometry" />
        </mxCell>
        <mxCell id="XQlcI28_08daEvwIUnFz-13" value="" style="sketch=0;pointerEvents=1;shadow=0;dashed=0;html=1;strokeColor=none;fillColor=#505050;labelPosition=center;verticalLabelPosition=bottom;verticalAlign=top;outlineConnect=0;align=center;shape=mxgraph.office.devices.printer;" vertex="1" parent="1">
          <mxGeometry x="105.82999999999998" y="370" width="56" height="47" as="geometry" />
        </mxCell>
        <mxCell id="XQlcI28_08daEvwIUnFz-14" value="printer" style="text;html=1;strokeColor=none;fillColor=none;align=center;verticalAlign=middle;whiteSpace=wrap;rounded=0;" vertex="1" parent="1">
          <mxGeometry x="110" y="410" width="46.17" height="30" as="geometry" />
        </mxCell>
        <mxCell id="XQlcI28_08daEvwIUnFz-18" value="" style="shape=image;verticalLabelPosition=bottom;labelBackgroundColor=default;verticalAlign=top;aspect=fixed;imageAspect=0;image=data:image/jpeg,/9j/4AAQSkZJRgABAQEBLAEsAAD/4QCHRXhpZgAASUkqAAgAAAABAA4BAgBlAAAAGgAAAAAAAABORkMgcGF5bWVudCB0ZWNobm9sb2d5IGljb24uIE5lYXIgZmllbGQgY29tbXVuaWNhdGlvbiBjb25jZXB0LCBmYXN0IHBheW1lbnQgc3ltYm9sIC0gdmVjdG9yIGZvciBzdG9ja//hBY1odHRwOi8vbnMuYWRvYmUuY29tL3hhcC8xLjAvADw/eHBhY2tldCBiZWdpbj0i77u/IiBpZD0iVzVNME1wQ2VoaUh6cmVTek5UY3prYzlkIj8+Cjx4OnhtcG1ldGEgeG1sbnM6eD0iYWRvYmU6bnM6bWV0YS8iPgoJPHJkZjpSREYgeG1sbnM6cmRmPSJodHRwOi8vd3d3LnczLm9yZy8xOTk5LzAyLzIyLXJkZi1zeW50YXgtbnMjIj4KCQk8cmRmOkRlc2NyaXB0aW9uIHJkZjphYm91dD0iIiB4bWxuczpwaG90b3Nob3A9Imh0dHA6Ly9ucy5hZG9iZS5jb20vcGhvdG9zaG9wLzEuMC8iIHhtbG5zOklwdGM0eG1wQ29yZT0iaHR0cDovL2lwdGMub3JnL3N0ZC9JcHRjNHhtcENvcmUvMS4wL3htbG5zLyIgICB4bWxuczpHZXR0eUltYWdlc0dJRlQ9Imh0dHA6Ly94bXAuZ2V0dHlpbWFnZXMuY29tL2dpZnQvMS4wLyIgeG1sbnM6ZGM9Imh0dHA6Ly9wdXJsLm9yZy9kYy9lbGVtZW50cy8xLjEvIiB4bWxuczpwbHVzPSJodHRwOi8vbnMudXNlcGx1cy5vcmcvbGRmL3htcC8xLjAvIiAgeG1sbnM6aXB0Y0V4dD0iaHR0cDovL2lwdGMub3JnL3N0ZC9JcHRjNHhtcEV4dC8yMDA4LTAyLTI5LyIgeG1sbnM6eG1wUmlnaHRzPSJodHRwOi8vbnMuYWRvYmUuY29tL3hhcC8xLjAvcmlnaHRzLyIgcGhvdG9zaG9wOkNyZWRpdD0iR2V0dHkgSW1hZ2VzL2lTdG9ja3Bob3RvIiBHZXR0eUltYWdlc0dJRlQ6QXNzZXRJRD0iMTE1NjQ2NTUwNiIgeG1wUmlnaHRzOldlYlN0YXRlbWVudD0iaHR0cHM6Ly93d3cuaXN0b2NrcGhvdG8uY29tL2xlZ2FsL2xpY2Vuc2UtYWdyZWVtZW50P3V0bV9tZWRpdW09b3JnYW5pYyZhbXA7dXRtX3NvdXJjZT1nb29nbGUmYW1wO3V0bV9jYW1wYWlnbj1pcHRjdXJsIiA+CjxkYzpjcmVhdG9yPjxyZGY6U2VxPjxyZGY6bGk+UGF2bG8gU3Rhdm5pY2h1azwvcmRmOmxpPjwvcmRmOlNlcT48L2RjOmNyZWF0b3I+PGRjOmRlc2NyaXB0aW9uPjxyZGY6QWx0PjxyZGY6bGkgeG1sOmxhbmc9IngtZGVmYXVsdCI+TkZDIHBheW1lbnQgdGVjaG5vbG9neSBpY29uLiBOZWFyIGZpZWxkIGNvbW11bmljYXRpb24gY29uY2VwdCwgZmFzdCBwYXltZW50IHN5bWJvbCAtIHZlY3RvciBmb3Igc3RvY2s8L3JkZjpsaT48L3JkZjpBbHQ+PC9kYzpkZXNjcmlwdGlvbj4KPHBsdXM6TGljZW5zb3I+PHJkZjpTZXE+PHJkZjpsaSByZGY6cGFyc2VUeXBlPSdSZXNvdXJjZSc+PHBsdXM6TGljZW5zb3JVUkw+aHR0cHM6Ly93d3cuaXN0b2NrcGhvdG8uY29tL3Bob3RvL2xpY2Vuc2UtZ20xMTU2NDY1NTA2LT91dG1fbWVkaXVtPW9yZ2FuaWMmYW1wO3V0bV9zb3VyY2U9Z29vZ2xlJmFtcDt1dG1fY2FtcGFpZ249aXB0Y3VybDwvcGx1czpMaWNlbnNvclVSTD48L3JkZjpsaT48L3JkZjpTZXE+PC9wbHVzOkxpY2Vuc29yPgoJCTwvcmRmOkRlc2NyaXB0aW9uPgoJPC9yZGY6UkRGPgo8L3g6eG1wbWV0YT4KPD94cGFja2V0IGVuZD0idyI/Pgr/7QC4UGhvdG9zaG9wIDMuMAA4QklNBAQAAAAAAJwcAlAAEFBhdmxvIFN0YXZuaWNodWscAngAZU5GQyBwYXltZW50IHRlY2hub2xvZ3kgaWNvbi4gTmVhciBmaWVsZCBjb21tdW5pY2F0aW9uIGNvbmNlcHQsIGZhc3QgcGF5bWVudCBzeW1ib2wgLSB2ZWN0b3IgZm9yIHN0b2NrHAJuABhHZXR0eSBJbWFnZXMvaVN0b2NrcGhvdG//2wBDAAoHBwgHBgoICAgLCgoLDhgQDg0NDh0VFhEYIx8lJCIfIiEmKzcvJik0KSEiMEExNDk7Pj4+JS5ESUM8SDc9Pjv/wgALCAJkAmQBAREA/8QAGwABAAIDAQEAAAAAAAAAAAAAAAUGAwQHAgH/2gAIAQEAAAABuYAAAAAAAAAAAAAAAAAAAAAAAAAAAAAAAAAAAAAAAAAAAAAAAAAAAAAAAAAAAAAAAAAAAAAAAAAAAAAAAAAAAAAAAAAAAAAAAAAAAAAAAAAAAAAAAAAAAAAAAAMOlqa+P57y7W5ufQAAAAAAAAAGtBwsVpADJJzE3K+gAAAAAAAAPFfrUP8AM0rJyG3sZfvjDq6MdFR7ZsVn3wAAAAAAADHVqprbVhn5X0ABrQVehvk7cJQAAAAAAAPlcpmrK2ye9AAAadWrGKw3XbAAAAAAAadEhZC6zf0AAANeoVf3dbN9AAAAAACCoPi4Wz0AAAAR1Di5++ZgAAAAAHyp0ze6BJAAAAA806oyHRN0AAAAAHylVScv+YAAAAAgKDm6PIAAAAAD5SqpZL36AAAAACK5166TvgAAAAFSpdkvn0AAAAACL5xm6ZsgAAAAQXPJvofoAAPmP579fQAAhucynSPYAAAAafMNnpmYAD5HQcVHankz70nMTeYABWKLbLqAAAAPnOYjpkkADFWqvoAA9z9rlAAfKDXekzAAAABW6Fc7cAHys07WDZ3dj7j1NHyE9dt0AMHLs3T/AGAAABj5Zm6f6AGpQYc+zVhmtsHiLgq5qmS7Wb6AK7QLtawAAAKlS+izgAieea77Y7fvAA812naZZb16APnNNLqmUAAAPHKtzpf0Ahud429fZYAAY6dUye6D6AIPnV3tQAAAVyg9BsABG81xJ2/ZhrwURoa3nLuyc1LfRA0DGsl8+gPnMPHUvoAAA5vodV9AMHMdNYb96I6oQHkA3bXZvZE85xLtawCr0bpMwAAAa3KLVdgCg1xM9F9vFNqnwetn3gwBv3yWITnXz106RAYOT2a8gAAFaofSpcB55D82en7LW55FG3Zp2R9PmCHrkF8erxZyn05cLiAc40Oq/QAAFAg+s+gCmQN3mmvzXQZblaPQBH0eGLxaXmhaF+kACp0rqe8AAA5XvdGAAeebxDe6JvgA+U+nvvRJwABFczvtkAAAw8kt1zAAVCmt3pW0NWG0fGxKS3oVKltjqWcADHyO1XYAACM5jfrGAA5xC++mSRoUyB+Bt220fXyg110qXAAcrkOiAAAQPPOkzAACKqVisBXqHjAJnoWZhpOxc/oADm+Dp4AAFZonUZAAACB578btmlcmnAV/4lukewAAOfxPVgAAKrSOrbYAAMHK8K03X2EXzzVXC4gAAUOB60AABVKT1faAABo8sWW9/QI/mWOx34AACiV/rYAAFXo3VN0AACv6NqyAERC2faAAAoUH1kAACuUHp0mAAAAAAAAHO9DqYAAENzfok6AAAAAAAAHMvfSgAANLld2tYAfMP3L9HjBsennEDN9GKPx7e79AD5yWevoAAHzkdhvgAUerJDpeY55A2u7Of14HTZRgplb8EhepcAanKbpbQAAHNcHUQA57AFuuZzqDtV3c4hX0dOksPNY572dbxPdDAFf590iZAAAU2odY2QBz2A9ecnU9pzqDtV3c4hZLpo9KPVllu+XFV9K9ACjVnrWUAABEc1vdmAHPYCdg/lovLnUHaru5xCyXTwxcm8SHT/QAD5yre6QAAAeeUyPRwBz2AtGvX/XUd7nUHaru5xCyXTwhOcrlbwACJ5peLSAAAKTVeqbgBz2As9q5f8sV/wCdQdqu7nELmmzLe6vRnQp8AAodc6vsAAADQ5bbLqAc9gLPeqHWvvTqZB2q7ucQoeuvVWkuiToADX5TP38AAAHO4fqmwA57AWe9afLfFg8QVqu7nELt3Iyz9aoa9WcABS6l02UAAABF8ytV3Ac9gLPelJqn2QjrVd3OIWS6eEXzJYOggAanLZnogAAADn8B06RA57AWe9NfleItV3c4hZLp4fOV6f3oc6aURZAOf1/p8iAAAA1OXb/S/QOewFnvRT6cWq7ucQsl08Fe5+TW7qQsv0gEDzy13YAAAAVii265g57AWe9GLl2otl1c4hZLp4FXpWMfbpbA1eYZunZQAAAB859AdCnwiY2WkhqQ3yc2URG780A14LQ+bk5uh45vF9LlAAAAAYeaafSJUAAAAAB8oFevdmAAAAAaXNfHRpQAAAAAHyiVq3XMAAAAAR/N/HQpkAAAAAeKFXrVdvoAAAAAaHOdW8Wb6AAAABq8+ibdcvoAAAAAGtz2JsV4zgAAABA0TDebMAAAAAAPFNqezdrD9AAAA1KVXt6/ygAAAAAAEPRdCVuE39AAANep1bxarjlAAAAAAAPFXqOvI2iw5wAB8iqzXfE7c5EAAAAAAADFWqto+pibl5HIA+asVDQWp6sFrlAAAAAAAAA+RFegtR93NzYyffODW0cL1Lz9h2AAAAAAAAAB80omN0dTBj+es2zuyEpKZQAAAAAAAAAAAAAAAAAAAAAAAAAAAAAAAAAAAAAAAAAAAAAAAAAAAAAAAAAAAAAAAAAAAAAAAAAAAAAAAAAAAAAAAAAAAAAAAAAAAAAAAAAAAAAAAAAAAAAAAAAAAAAAAAAAAAD/xAAtEAABBAEBBwUBAAIDAQAAAAAEAQIDBQAQERITFCAwQBUxNDVQMyIjISSQMv/aAAgBAQABBQL/AM1nSxsx1iGzFuQ0xbwfPXos9eiz12DEuxVxtsE7GGDPz3/flIhgyW7gbkl2S7JDCZe22R8eR2hkeRXy5DaCTYioqfruc1iEXUEeT2pU2KqquMiklWOoLfjKFcbSDJjaoJuICKmcqPnLD4oYy4tcG7HU4bsfQxY+jITJACotYiZoFgvHpkBo5P6j3sjaTdtTJiJiHZCNMQsNE9chrBIcRERO7KPDNk1JA/J6kqHFTYuDWxEGDWA5X6JdxFDk5MpLsGrSCcHpx4cREanhziQEITRuTJI3xOwS3mhyAmIln5hBMQrDLOUrQYGctRaqAfyZYIp2l0rmYrVascr4XhW7JfyzrNguSzSTyNa57g6ZExERqeWUDCW0yvmEXAbR42RysmZ+PY227nvgocpbxAYhG+cqI5DqfZntghkocgxUZUf4tlab+gFa8tY4mQs/BPrGFJJG6J45Eg0oZkZkX4dpZb+lbWKRiIjU/DOBYYyaF8EkE8g0ohbC4fwbax3dKyt5hfb8Y0JhkUsT4ZBSXizQTsJi8+zO5WL3ytAUuRERqeFxGJnFjxHNXw7AFDI3NVjq81Q5muRzfNJIaLBNK+eUMVxc8UbYY+9NYCwZLetyS5LfjjCX4rnL0NmlZjLMxmR3syZFcivyOWOVO9bAcVuU526vm2ZnNTtar3AiNEg7j5GRtIu2Nyc4gjute6Nw9zPHg1gOT3rYHl5PbK0zmx/LuC+DDlMHsTt+2F3LI8mIlId0sGnkxtWY7EpjM9FLxagxMcAWzHNc3qEtpoMGLhKb25omzxEQOGnCJUQhrkc3yXvbGwmdxM4IylkoiNb2iCYhYzLKUtdUTasFSVNkNIOzIxYIutzWuSWrElyaicmTDTDrqyR8TwbdsvctxONBlKVvs8m7J2MyqF5cXtGnxhsnnkIk098FppZcHDgGTuKiOQmmhlwgSYV2tfarDiKjk7ViLypUEzh543pJH47nIxpEykEVo3Ml9qwPaGySR0r9BQ5S3iV8IieA9jZGm06tz21rrFRXNcjm9m1G5gTKQjei8e6I4YuU4/BE7JpjQ4ZJHzSaAVriljjZCzolnihSW7HZkl4QuOtDHYppS5zZOIeW3GXBjcjvshsxJuo+sYUkkb4n6VdhwHdo8fliwp+WK8e1n4xw0PMEIiNTsTStgiKJeVPpW1vMqiI1NSToBUIuZ5cc5XL2YDJxsGuo341yPbqcCwyOSN8UmlQdvp2byDegyrn44PikS8AdV2rRQ7ZOzbmcabSuBUuVrUa3Rzmsabcq7FVVXoRrnYghK5yRWOgmZ1DGzCODsIi01sgELjVFRca5WOCKQsfsTRpNC5qtdRzbs/i3cu6LlZDwQOwvsvvg8DiZoIWDw6TzxjxGnyGO1gFmJWCiyKuEixEROh8EMuTUwsmEU5EOKioujXK11daJN0XAOtDt7VtFwjxJeCV4t3JvGRM4syJsTs2FS9ZGgFudXAcmzSeZg8Rhchkukcb5XiUzGYjUanZJCgKQyslF6Kuy4uqojkLqJonxVxcrgxWiQdm9i2x4FJxg/EMk4plRHvn95VRqWJqlzaCiSFyChxCM7thU6ouxaw7mou9Zx8QDKSTeD8OV25FlCz/LvXRezUUV5cw48Y0XRKTDBkl2M3Fvs9edjb6PIrQSXEVFTota3eTSCZw80MrZou69u+xU2LQv/wBvh2LtyvykbsC71s1W2GMar3hCNEg1JMhEaTbzzYqqq9MJUw6iXLJMRdqa2wPLyaVbVbX941u4bTO3bDw7ldlflU3dru8cCw1i0paOAq0FXWws0Gx73SP7INlIIsUrJo9JYmTRzUk7XC0jt9E2J3rZu7Y1y7th4d4v/UwFNgPh2Z/Kxqqqug4k5Sw0TcbVBtz00NckpRXYRTTxYqKi6AHODla5Ht8O7TYcKuwvw77+GC/E8KaRIYZpXTy6V9TxEa1rG9JgERbSBpBZdKQpdvh3vy4f7+Hffxwb4vhGRrMHpUgcZ3YMEYXDJG6KTKSJXF+He/Kh/t4d78bA12h+GXUREPiomo5jGxs7JldEZjaH/KAeMaPw7xf+4P8A8k+HdptCyuXer/1bldtgEm03w7Zu9XZTu3q/9WydvWFU3esfDMZvh5Qv/wBPc40WcaPqc5rU5mDEVHJoqoicaLONFnGizjRZxos40XU+RkaOsw256sFkZg0vemfxJ6Nm0zw/dJG8OWjfsK7d2Q/j6CmyiSRSNmi1uXKp+UKrxdLmV7jOqter6/SWVkMZV1I/HPc9dRziBlBPYa3tFP4QuULP9fiWkfDsAJOEd27r5+tIVsXW4+xyh/vpb/Y6bFzYubFzYuV8axA5LI2GMwx5kujWOevJk45jmLlMuyw7VzJuA5VR8Ov8S+i/5weXjD9q6+fmxdmRvdFIPM0iDS4+xyh/vpb/AGOV32GxM2JmxM2JrdFb8uldV8wkcbIm4+NkjS6Vq5UDStO7V5LvTtar3RsSOPxLSHjAZSTb43auvn5XQczGqbFylK3JdLj7HKH++lv9jld9h0yvSKJ71kfgI/NFIiInfLl45VTDxT/FVNqExcAipn4Jvauvn5RfJuBuCTjXK1wZCFDZcfY5Q/30t/scrvsOm3fuV+lDH/j37OfgBZRw7sHjXkGyRF2KJPzA3Zuvn5RfKNGQoZUVFynK4JGXH2OUP99Lf7HIZXQy+tl562XnrZeRXRHFy9X/AK2lMmwDv3ZG+Q1qvdBEkEHjGwcyLlGTsf2br5+UXysuReFPnsoJPNC3H2OUP99Lf7Hpb/8AWX38dKf6/vTzJBA96yPph+KV5FsNwC45HRSQStnh7F18/KL5WFQISO9qsflOTwSrn7DKH++lv9jgkSTlehjZ6GNnoY2R040cmXjdoelG/aL3rsrauV43LCeRYDc0LlKXuP7F18/KL5Wl2LuvxF2KbPzMmUP99Lf7HK77Dpso+KBpTT8IvukztGgke6WSpF5gryrcTgztVWuBKQsfruvn5RfK0nibPDLG6GXWh/vpb/Y5XfYdPuhcCjE4i7Fr7FpTNSC4RWh2vNF9duZx5kRXKCMgo3lEwNJgljdDJXmKIQio5Oq6+flF8rW7F6KH++lv9jld9h1WwXMRae2RWxcSeuz5LblyI5yuWp+y6rQ3locpg95/mW4XFZlOds67r5+UXytZI2yxkjvFn0oWrxNLf7HK77DrsKnjK+N8buhEVVqa+SF/SQQwaGeZ5Ewgzi542Nij820B5aX2ysP5qPpKroC3ehQ4KDCH0kDQkt9DGz0MbIYIx49Cq2At/oUODVY40nYlginbJRjuxaF2JQvyOihTIRIB+pzmsbYGqZM1qvcAGgcHnSxtmjMEeHNHI6J4JzTIvxlXYlnY8y7Kqv4LfwChmFQkDvGlhmfBIEawyP8AEVdiWVlx9Kqu2/hmBsMingkGlilfDIDYMMb+E5zWNsbNSdKys4n4pYkZcRIsgsjXKxwFs2X8EgiIaM2wkMdldVbfx54IyYza+QN2A2zx8imjnZ5ptpENk08hEjWue6vqkh/Jc1HNOp1bntkBEozxLeKby5yYhmmW8s+gwkpbwwIg2/lmVsJeEhTCOwWxnFwa1HI8eaeKBpV2q4+R8rkRXKHTOdjI2RM/Nc1HIVStfk0Eo7sHPIGyC8idkc0UyeDPZiwYRdzPx73SOwWpnIwYGAVP0XxskaRSRuycIgbRrlasVsXFkV6xcjsxJMa9r07Lyh4skuRWZLeTOyUuefRrXPUemnlwavHG/XnqxZ8mo5W5KIRDqiqmNNJZjbY1uJdlJnrpGeukYt4Ti3Ji46yMdj5pZNWtc9YakuXIaOJuRQRQJ+3IENNklIM7H0L8dTGNxa4xuKKQmcGXODLnLzriBFLjao12MoyVxlCzI6oOPGRsjT/0h//EAD0QAAECAgQJCwQCAQUBAAAAAAECAwAREBIhMSIjMEBBUVJhcQQTIDIzQlBygZGhYoKSsRQ0okOQssHh0f/aAAgBAQAGPwL/AG1sNaU8TFr6fS2LCo8ExY25HYrjsVe8WtLi0OD0jtZcRGC+g+sWeP4xxKYxaVOfEYASj5jDeWfXJ4C1J4GO1reaMaz6pMdpVOpVkTHjFZRAGsxJoF0/EdeoNSYmaMWhSuAi1AR5jGMf9hGEpavWOxnxJj+uj2jsG/xjsG/xjsG/xjsExYlSeCowHlDiJxgLQr4jCZV6W04pxSYk+3W3pjFuCeo3+KVlqCRrMVeTprfUYm6sqoxTZVE3nAncmOyrHWq2JASy2MbSriIxSi2fcRMJ5wfTEjRJZ5xO+JJVVVsnxGozjF69Ais6smiYTVTtKia8arfdEgJDNMa2Dv0xW5Out9KoquJKTvoqu4xHzFZpU92rw2s6qW7XFUYDeoUYtODtG6KysYvWc5quoChFbk5rDZN8SUJERXbUUndAb5RJC9rQfC6iMN3Vqiu4qsYCUgknQIC+U2nYiSRIDPMNOFtC+JkVkbQoCHMNv5EBbaqyT4QWeTG3SuiSBZpVqjAE1aVHP5ETEFzk3qiiaLU6U64rtniNXgxY5OcHvK10V14LWvXAQ2mqkeBV28F39wULElDRHONn/wBismw6U6vBDydg4PeVroDrwk3oG1EgJAeCanBcqC24JEQHGzI/uK6b9I1eBHkzJt75o550YsXDaiQ8GkbFjqqgtuCShAcR6jXAcbNh8AqI7VV26isvsk374kBIDM+un3jtE+8WEZnMWOJuMFKhIiLezV1hAUkzBz4uq0XDXCnFmZMBAu7x1QG0CSRl8J0T1C2MUyTvUYsKUcBGE+v3i0k9DBdWOBix4njbGMbSrhZGHWbO+JtrChuOX/kNjDT1hro/jOGw9TPpJOLRdASkTJugI7x6xytZagkazEmE1ztG6MNwy1C7K1kKKTuiTuMHzEkrkrZVludQMWv4NFvaJsVnnMoOG58Cj+SsWnqZWoxhq16IrOrKulgNLPpHYy4mOqn8o7n5R2YP3Rawv0tiSkkcelVXjEb74m0riNIyim13KhTStEBzR3hugKSZg50VquSJmFOq0wG+7erhASBIDJ13FS3a4l1G9kdCQiZTzY+qMYpTh9oxbSR6dOSgDxjsqp1psibDs9yok62U9ALQopI0iA3yjBXtaDlOdSMNv5FB5Oo2ptTwzocnSb7VUVlDDctOT2nDcmK7ipmmQis9i06tMYtAB16crIiYiszi1fESdRLfo6AafM29B1RMGYOTIHUVamEupvSYStNyhPOCpVwhbp7xhIPVTarJyFrhuEFazNRpk2LNKtAiYFZe0cxqrSFA6DBc5NaNjoc25a0f8YCkmYOSJHWbtFCmDei0cM45oXufqiues5b6ZKsbVHqiC4szUaa68Fr9wENpqpHRm44lPGMWlS/iMBCE/MdsRwEf2HPyj+w5+RizlC/eLVJVxEY1n8TFjlU6lWdKujBd/cFCxJQp5l04s3HZya0d29MIc0Tt4ZwrUjBEIa2jAAuGRU4syCYLivQaqedd7If5RICQHQxisLZF8SaxSd18TUSTvyWLcIGrRFXlCah2hdFZJBB0joanBcqChYkoU/xnDhDqnXkkvC9Fh4UInenBObLc2REzC3j3bBkuZQcBHyaZq7NN8BKRICkqUZAaTBRyawbcTJmejgpJ4RYw5+Mf13PxjCaWOKelNtVmlJuiQwV7J6FZPapu3xI2EUBSTIi6A53rlDfkVtnvCUFJvELZPeExmyW9s0N61YRyJlFtCWkXmA2i4UlxwyEW4KNCehimyd+iJvu+iYsZB81sWCXQw2kq4iMCbZ3RNGNG6+JGymskyIgNP2OaDr6H8psef/7S9qsyStS8KG3NSs2CNhMIb2jKJDRki9ycTnemJBhfqJQSq1xV+6kuOGQEVlXd1OqkIbSVKOgRX5ThHZ0RJIkN2SxibdoXxW67e0OgGHjh91Wukg2gwSynnEbrxEuZUneqyObFp0nXkm3dRlQ0v6c1dX9UJOyJ5ckmQEWdmnqimqi7SdUVUC3SrXli9yYcUUzEVV9qm/fl3RqE6CjZVmi17InQ65wGX/jI02qpDaPU6oDbYs/fRxjiUxgha/SMHk/uqP64/KMNlQ4GcdpVP1WRMGfRPKGRb3k0pdReIS4m5QnllJOkSiWqHUaxPNHjulQVbS8uuemRFAQkTJuip3j1j0JuKt0JF5iTeKTuviZ6U2nCndFXlAqHa0RMdDnmxi1/Bpanxy7yfrMAbQIzQjWoUNb55e3BWLlRIVDvnHOOGs5+uhzbWE7/AMYK1qKlHSclVOE1q1QHGzNJpLaxNJjFKStO+wwFcpIlsiJDLub5fqGT9WaIH10M+QZpUR2qviJm+nFImNeiMc6TuTHZT4mOwEYNZHAxNvGjdfEiJGnW2esICkmYOacUCGj9YzRrzUNeQZmtw3JE4U4s2qpDvKLE6E64qpAAGgdK0VV6FCObcHrrpPJlcU5ojyQ35hmjXmoa8gzN1Cbymynn3BgJuGs5Goq/unVBQsSUmguaEDNEeSEeYZo2froZ8gzQrQrm1G/VE3Xqw1AQEIEkjRkqxwV7QjCfs3Jjm2xIZonyQ0PrGaA6l0M+XxY7kiGR9YzRzdI0JGySPFnjvlDe63NHU/QaHUalTyvaJ947RPv0pqUBxjtm/wAomDOmZMo7RPvHaJ947RPvHaJ947RPvHaJ9+lNagniY7cekdr/AImMB5B9cste0omFK2UZpKFI2TKFI2k5QMAyQBM76QUnB0p1wlxFyh0CJ2ACVDqZ2Sp5ueCgXdNonVKkrcVVSIq8nwE69MTWoqO/oYDhlsm6LqqxeMm6vUmh1zWZZq59VsNK3yyn2joHkyjvT0FcBQ75aV+n66V0NJVYZUFxZklMVlWJHVTqpkhJVwEf13PxiSklPGgb0nJ1dsyoR9VuatO/aaEObQyf2iieihK03pM4S6nvUq4Ch3y0r9P1Qz5oui6Luh/HSbE9bjTzz1jega4qtpCRuoqrSFDfFfk1h2DBUtBTUGkZNDWyJwEi8mUJQLkiWar1pwhQprSg5P7RRyhrSUzHGJGg8nUbF9XjSrgKHfLSv0/VDPm6SnDckTgrVeozoS33b1cIkLhmDjms2QnUjCzaRhbWyYSDcvByf2ihzyRzgGC5b60BQsIhLgv08aFcBQ75aV+n6oZ83SV9RApdd+3MFnSrBFCnj3zIZuh8d6wxMQh3WLcl9ooc8kKb03p4xI3ijmlHBc/dCuAod8tK/T9UJcTemP8AT9o/0/aP9P2hPOBFWdtlDY+unio5gGRc3fxgJF5hDQ7ozdbenRxoVydXetTkvtFDnko59IwXL+NE4SvvXK4wrgKHfLSv0/XSFDXmpTxOXU6ruiCtV6jOOdPVb/ec1x1XLYS4m9JnCXU3KGR+0UOeShTR03QUKEiLDRzZOC5Z6wrgKHfLSv0/VDbSrlHRHWc946znvHWc94SuazVttNCTqXStGyrLjkyTdaqhKT1jarOSkdYWpoPJ1GxVqeOR+0UOeSkcpSLFWKomIQ7pKBPjQ75aV+n6oZ83SdGoTpqG5yz1yynVaIUtV6jOKxGA3ac751IwHP3AUDIiAvvXKG/IfaKHPJSppVyhCm1XpPQd8tK/T9UM+bpShbWo2cKJiAhZk6PnoTdXLdpjmubqpN2Q5pBwG/kxIXmEo716uOdqaVp+IU2sSKYmeoqxUTFoPT+0UOeToDlKRuV0HfLSv0/VDPm6fOIGMR8joSr1x9UdkiJBQR5RE1Ek74b9f106iDjF/FH8lYsT1c9/kNjDTfvFH8Zw+Q/9dP7RQ55OgptVyhKC2r0Oul1WiUqV+n6oZ82QLrFi9KdcVVpKTqPRkLY594VTLBT0i6vR8wp1d5gNi7SdUBCBIJuz7nEDFq+KObWcan56VZcwrWI7VcHm5zOk9Gq6icddz3jrue8VGkyFNdcwrWI7VcBwVlKF08jJ1AVxjAUpHzFj4/GLX0+0Yx1SuFkYpsDfp6RUoyAvjU2nqiAlImTdEu+esc/LaxNJioer3TrgLQZKEanB1h4PMxzTZxQ/yo590Yw3DV4CW1+h1QW3B/7AcbMiImLFjrJ8FmYLLJxek7VA5Q8PInwOqqw91WqC24JH9wHG1SUIkcFwXp8DKlGQGmObasa/5UB98YPdTr8Fqrv0K1RUcHA64CkmRGmA3yjBXoVoPgNd1Uv+42W9CaA9ygcEeD824mYifWb0KoCHZrb+RFdtQUM+KEYbmrVFd1UzASkTJ0QHX7XNA1eE1VCYOiC5ya0bFFZpUoqu4tfwc7rOrlBQ1i0fJok2LNKtAizCXpUfDJ9RzaEYxNm0LqJBVZGyYkTzatSs3rOrCYq8mTL6lRWWoqOsxICZgL5TgjY0wEISEgaB4dVUJg6DFbk5qnZN0VXUFJowF4Oybok8goOsWiJtrCuGZWuVjqTbEmU82Nd5istRUdZomrFo1mMBOFtG/wASqrSFDfE2FVDsm6MY2Za9FE0kg7o69cfVGNaI8sWPAeayJpUDwyWG8gesYNZfARim0o42xjHVHdRJIJO6Ju4pPzE0omraV4vOpUOtNkTZcC9xsjGNKG+mwyjBfX7x2s+KRHcPpHZtx2bcdVv2jrJH2xa+r0sjDcUriaZJBJ3R1Kg+qJvLK9wsiTTYTw8cw2UmMBS0RgPJPERYlKuCotYV6Raw5+Mdkv8AGOzV7RYyv8Ys5O57R2MuJjCUhMYx4ngI7Ot5jEkJCRuH+5F//8QAKxAAAQIEAwcFAQEAAAAAAAAAAQARITFBURBhcTBAgZGhsfAgUMHR4fGQ/9oACAEBAAE/If8ANbpKYU8XhReS5qg5jgPtGjzAv4ZCkeS64g/a+QVchJqBAOQIy9/CPlpMeSfwcvIoSPyDuqkiWgCJJLkvsjzkMwK2FgdSAj4oFMAD6j/CcQCDUe8FIbmRgnO4IhzJzAd5PWacQSTU4NwrrKLgEUoMn118gCoDUvlSfivQHLkV/IqZcop5w3C6oh8ojpd9F96pU/XBnREEFiGOD2yQGHJNoQaR5IZGabk90OxjMjJ9dOHwCyxQGQ4YMTNgIDimkM1jzTIQHkrJhIBQDbBWz2JzTobMQ4AhrH0RDAIImCgSC4LFMmUzjzTZwDn99wkHKeWPBZrIoRQaDBjd+QP1NQT4UEMBAkAN0YRHgDinNk0DzReK6AgWLhMr+dJxTet9Woe26dgJ6EbJc6nqcJRKoAJvA1RgNBvOs4qJ2O4U0ujcycBDEIUBNUtoA8De1jyxyGtGB5alS27AclaawDAaofEkAAwG+SJUSiyEmVxtged+KyEUkCPaJgZRU0RJIklyZkqF8MySMdxzR385GJAg1UI3E/p+kQSIIYiifE5OkgvrCZeyyiUY2GQPQMsBBwXFpQqkgB7EYNXqa0SmaxJBTMiYoFinBszpl7I7gKAugZYECgdT8IZGAYAU9ki1hPyOSJxWbCkxQLFC0MIVy9iYRHANMsCAZG8FkAAAGAkB7NDxwh+JxzYhFwyoBZP3KFQbewDeIPBuiSRJLkzKZEQTi2QyMAwApuRIEyyM8LUF/NqaLQ7nDqFrZFEgFMQaKbBgfIgYAnBFd++eULJ0s3Kg5jGyTNosBt3AHhmuiDhpA6KRZ5zU/OTwuq4cXIXVpQugtHcoSHvETaNAOOizDM9t3+DoFP3gxxlEaG2+yDlZPDPmj/i2AVQGMY1w7UzHNRk/8OKOcdytqFABUmTOAXzDmTO68g/u2qOIgKBJAgsRIoAH0S+e+UcEcDL8AaC+0JAOSwFU9hF7L9p4go8hw9XMFBqTHoAiJh1TJRLtAC7ZnwRVw2BvUzlyig0KiOkTdoBqcTFToTgbi6DbLcRjAHBFd6O+zwVQzAWFAqIkSyDRAMAKbOAEpVoRoJsEnr6CAASTIBNgRaz8kyG0JFztxFz9bKLYHTm4Xn+E8AcOea14JoHj6JQIiKEqUPA20p2I4HfWSzep9nLUGDcw4AKDZxlAfsckXnG5DTEAkAEkyATSfrv0mFXBxLjtT0YkwQ6eCZVf0npAoMS4+g2QlVfyhkYBwRXZGIYph3YrKsINRZFzdo3g1zDclZcILCiY0/KrbODQfTzKJXNck4yJUxA5cYo8LbiSzhAdR0ziUxpdEEiCGIocRwhK/oIGABwRXZNjflVRg/PuL977wxFjsdE8IJeINlCtBXSjizXJOI88AzrpQykgB6WcnMnwFbyKS7m5Kd6QCmHNJpN34O7roq/wqXF+IplATJAghwXHpJG71NaI3NYg4nHG8Sr62U0woYjwCiu8DNaaBcON3YoL9Mn1RA1g5CqGUwGA2LMZOVpL2FsTBAQSA8SQyMAwAp6J2aIpJ7a4jmROapknOyJawx5E28Rn4QJIsRwfRTAv5HJHXmsQcW+DY1FtkzKJxH73wcBP0yXRt2ETqka0RDEckuUzaAcYz8z2VWnHEjoBo75IGAJgBTEbeOJJIlZ5KZ0siookya+k62gnUxXEiD7C6gIPV1oIJ7jMzdr+hgoAIuxEYyQxBpgfoW5CiFaAaDYpbZ0AixWITwIcYG7N6Yx9B4MGgQwOZ+NsX3jQTnVPHAFEWdhdDXYPM3xZRvMmwUSmTD+fQzANZA4oEPB3KmNX+xB2EFgPQMbSlOh1Y45FOQgHyZEQCQmDiDEEOCDJOqEij+/RCOgDF5+cdk6QGAA+eqicwE+ld2ZkwAOJj9I4CYUAMTAGGya9TeuDkm1R0HMoJWJ4JBYY92YskUnYdAMZKAEDATLya3QuKKQBgNlBbbABPYaBLUYyTCDpnTriMsAMQaoxYpgOQZBAgVCwIaK5G+2TTicfH+YRRckAdRA7raAm2kk9wgb4/O3GWAck0UXSIVzPFr7BPkCjNFOntRAIYhwU2MxH8fWJAEYiIIQH6DwL7e5jXhHB4pn5GP3umbjyBEuXK0UA7cogzMdyoMYVAnTBMFAmalc+kU+WEx5KB54GDqvMfhCv4tEZ0URnAyw/wgIADIj0ggfiKuYxPxFlcWVB+NsCSjEjHOZMUxZvJ/d0zw60MM+jsNue5B0DYF1FsAqhsGMa6fROKXCD5N1biiIhJMyfV2uIeCLAS2m+kABAQZEeiQgkQMYPTkENCdvkx3F4kkfjdMmp8/GHEB1O3DQXhgU0AFitetQaXojy1Ut+lPxBsgBdNP4kBDKEYtOixCKbQchiENd31KAADAQA2/GB0Lgg5w3Rq8DscGvmbpFsMwy3REQkokmuLJLUOAcUEATFlupQ/rlKIzcslA5/UHVBicBpByIiKBMHGMHL/UIdQNwRXdGE+B1ld3d0KFn7YCw/FtzmpvUnahnOJhMljLOrJBEmwGA9RdlKjxujBkaBILjEko4A07jdAiZO5RsbyfdOqdsPO23OPFCLlSLHAUdGjeTbEjgDG6TgwMRgDgjXOZ3TxsyvGX3QdB8Dg4vBt0JkpgcuCCCAWT8UACKwCmyjwRhrmqvvjO6FWZO5NzujgrB3KHMO5umWh2OD40coe7Mm0+fleeEd08AIjDyRC/z7tkZ0gy4hdB3TMpjlg5a3MPzaEsHK/h1/FoEEOC49LKDcmX8am4guC+LKQXJX8Ov4dfw6/h1/Dr+H9TANdpE2JdBPZAhp8LIoxS0B67byICsyDqRuhAIUijkplTz7I2hJSBAKjiaOXRzBChO8HoJcizLQwighls3xOzNo1DkO/rIu5maFsQ5qgo2QZ2b6RuYKk/oAOcqHI8PcbPPTbXBmyB4f3dZYgweP6o8sI2hhtJvopJR/cejwlsOgd8eh7GOQVkFZBWYQqpgg0cvgzaDko8JyQ+8Xsazigv1CciLA2BwRQHZzzEfBP4wjERefH83WBRMHuD5QLFxMIQ+iTrXZzcIGNsBYnAobNBUtwIixqMfCWw6B3x6HsYhkFkFkFkDEoK7zYmh3if5QaDaA2GVnAdCSXOIHQoCGK8CJ2bbGD7U/xRjwgUgABw3VggP0T8fB5DR6H9fZzcIVDOiMEQgGIgRhdismLwlsOgd8eh7GwiaKSRrHMLB1voEBiAAwAptyWDlWZ5aicpFRwl13YBgOCGKKeqgaUTiGjvjrs5uEcDxEL6XarAiLhwbFTRgYbVYeEth0Dvj0PY2EMkT6z+YhcCJIDufjcGELdd/HwZpHgA/d3b1AOOJeZIgiMQXBQB0+ENdlNwvIzC1mSyEYmIxGGWTGVGHhLYdA749D2MGG3nDyWR46rI8dVkeOqOCUYBjC3PBu5d0xbTcbg5WBzEI9ysApAIxru8NYw+lJEEFjAhOShzVfMtlNwvIzGDZ2A/WAJABYiRQnmCAnhrYdA749D2PUBIBMlCS6p2xN8rvbeVo5rkjWOYRT4GC/FLeXgLQ+tUZlmhVXRpsZuF5GYwo6orGhTuhsZ4fSbULwVsOgd8eh7GBYSGhqX8d9L+O+l/HfSH0kmADdsMo7scb0O8xt5THN0GDWm58d5bZ36yIYsV2lks2M3C8jMY/KEFDgQBGIiCh0QNKeHQO+PQ9jYQyIix4RxC/sP6NtJMGAuaBFDd4KYH3EDQb3W8PpUnUQcEUUC7NBsE3C8jMY0XRpmggs0Po6B3x6HsbCCAQg4M0UkuIowIIjERBCFGGiD1j0NGFQYlwRXoAEm8YX2ExhooGRuRgBVVWol97U2UDdQp2gmIQEYynK6GTgBwRX1zcLyMx6HRLvzPo6B3x6HsbGCifAkORiCScFiKoSYBQX6qFV4plD4nNE5qmScrys3rpc2GS+GVCfU332nhhHhDB0IYzPWm4XkZj0CJd4Qx5cBfGA0Auzx6HsbKAMM0aH7RmMZgb0gQCRkAqIgJPU+ozsJBdZHRcvIWUO2a0TIxMG/VzfPZAkgQWIqgyERy39Qm1wz6j/AFp+AQ2J3PpZabIyI4onMA8H0gIxLwfSHhB9cWIN2J5qP9aqgkOWxaF8kkZfL5E/j9WJ3AaGiL5GDELi/FzeobYdyNE7A8B8iP0LYBVAkJi51t/ZtFiEcxSjZIl01wQnpD+lGXs4CEAAiSUSCizu+sGqBY1P37CHHOoV010IkaBcYHndvkPz2UBCAATJRyYB8WWDqHzJXM+xyLuoSbBkjQLhEwShCh2C1Mx7GNuM5KiJExFM1/GBCuMnWcvZWdsEqZI30DIESCc4AxCfUJMj6T7CVNFBXQmoYBg/OFI8zVzPs566JXGYVaAwPnDImikRLNRv0FNtLUj403IaI6M5gAmmcCdNH79pJgIYkIFMJM81DREEiCGIoU6adRQ6hN7d4+QTuHG9NUDQVOgUQN3wbCXKmIgS5muFvbABbkE9bpqZGIWDFxRjhZNz/qQ4FT3ZlHzMSnZgtR4BGJxmR0MnEkAJqKiym1spQIge3E4M4BwU/c/TSy1SRI4MQOdSjT4kFU2/5txJYOU4AA1nES4QWEGZHwYh5TE6BTlVRC9yMzzQHT7x4oYhLMebAHFVSZNAIWhfrNMwz8nUzGyGIu5PsuWDOq9dAdU+ABeIpXOZhywCT1IA5TcYZkeRM7LzD+e7EOGKcie+ISToBapSF8jjniVcxXBUreRMqiEEyGt+0KpOB+1/CP2iZC4vtSjRgpCuDsXVGTjkjoHTCTnjbpNNZPoEwZ5J++TjjUBjzCihDVwgeuQXkAar7huyk440RzBxL+nQnDxLvoML4AQu4sShOTNqKR7uLIBjX+kX/9oACAEBAAAAEAAAAAAAAAAAAAAAAAAAAAAAAAAAAAAAAAAAAAAAAAAAAAAAAAAAAAAAAAAAAAAAAAAAAAAAAAAAAAAAAAAAAAAAAAAAAAAAAAAAAAAAAAAAAAAAAAAAAAAAAAJ1AAAAAAAAAABQBkAAAAAAAAAhsHoAAAAAAAAGcAA0AAAAAAABnAAACAAAAAAAEoAAAEQAAAAAAKAAAACwAAAAACIAAAADQAAAAAIgAAAADAAAAAAgAAAAAAQAAAAAAAAAAACgAAAAAAAAGAADwAAAAaAApIwAAAAAABIAFAAwAFgAAACgAAFYYADgAAACAADgaCABAAAAQAMYADEALAAAA4AzAACkAIAAACgAEG5BiAeAAABAMBgBwEAEAAAEABCGgQsAIAAAIBEhBIRAAYAABQBhAAAgwAAAABAAEAAEAAAgAAOAARAeAwAHAAAAAAEQCIgAGAAAIABhACGAAEAABQAAAOyAAAAAACAAAJgSAAAgAAEAAAWAwAABAAAAAAAYAIAABAAAQAAAAAAAAGAAAAAAAAAAAAEAABQAYCP8JgAwAABgAgCQJQgAAAADAAEAgEYAAAAACAAMBfAKADAAACAAICgWAAcAAAcABIFAIAAIAAAAABAKIAABgAAAQAAQQMAACAAAAAAEQopAAKAAAAwAEhQAAAgAAAAAAECgQIBgAAAAgAIFAlAEAAAAAgAAKAgQKAAAAHggGcADAQAAAAFAAAAAAAAAAAAEgAAAAACAAAAAAgAAAAAEAAAAAHQAAAAAwAAAAACAAAAAcAAAAAAFoAAADAAAAAAADMAAAKgAAAAAADoAAFgAAAAAAABQQCKgAAAAAAAA8zU4AAAAAAAAALxxAAAAAAAAAAAAAAAAAAAAAAAAAAAAAAAAAAAAAAAAAAAAAAAAAAAAAAAAAAAAAAAAAAAAAAAAAAAAAAAAAAAAAAAAAAAAAAAAAAAAAAAAAAAAAAAAAAAAAAAAAAAAAAAAAAAAAH//xAArEAEAAQIDBgYDAQEAAAAAAAABEQAhMUFhEFFxgZGhIDBAscHwUNHx4ZD/2gAIAQEAAT8Q/wCax8j/AEZalBI1+w1Oc1D4V3wzoHF8TreUjOzL+a7kI9qRgtOR+8RUCPOEJ6LNHGrBUj+fwriYcuGJqHW4In5t+1T6HgwnOztUlKMQ+gQUiQnFWfK1r17Y1Cgjy8+ePeiwczgP01qCbfk6/tQAbSJI8/zBMVkAObSYgtg7xXeRUImWZxr+ykC2lSV57NNWLDpUWi5iPQlpQO9l9yntUep5wnY+agIZv/QK9up7qwV/XdS2P1dKxX8v4rBtP2wlFMq5/uKkVbIA7UmUkwFU6id6IWHx74lSJAYiQmwheM4txVnpSeCd62qzyiiQgL2rmx5T+UwRPkDrW6/YUPcecVKvzKI4QsbMc7hicZWOtb6JD3ljvQQVzZdH4UawBCA5eckk2QRwxFTTTBvab96PzAuXy6DSQ2gEI8KBKBkRhKfiO2GmmPrNGybjDLplyfkFEQAurlTBRWQ3OPw61Pejixp4Bs4wy0NDHktrQhxvIgOn7zQVMgYA0D0iaDICcgL1Awd5jgmB5xWOBhw/6UgIiMiZUzEdpVvTNwetRRhjWbdiH41SUO+NuGftSzFYLw97hhsIEIx34zdCgC7rHXR5stABBY9Q5TcI31DiPCgj3dUOIw7HjTHahZGo1gHnaOTvNGlJAsLPrvduFCIIyOCfipp4YGdZmentWeossG4MjQp8bQwjhRSTE6sTHgW40Z3oOBuA9YyAMgoczM0aXypg/QM2xM8OCyGrM06RRUZlfZ3On4fCgZFxKTfN91yypyypRKtXRzawWrm6FWsZBOWbjQ7+vCV8HINyUwXuSJTXf+jdTlkQohGropJdr4dak5xblsnzn+FUCgBdXKlEDLN99PdnwxqUqrwjQ/eiYzA+7vdfwQjFJsjT1a9ag24WEptFs/IGZQGyYz/Qbn8HhTQyyjjzbuc+GNKGKVt+jVnQSiDwAwA/CWesrLnueykPnccEyRzHfTml3OIDMaTG2W8Fw3Of4KxQEnh3Xfv3YbGPyi2UfXGjoGgEAbvwzAg1gutzvVPkgEz3JvHfU7YLt1a/eVRFHdcUtT8BCOq7Beu7/KcsqUZV31jDOYaH5aCYQaAGAHohZAatdqhfNDsDfTfXYXX0cdUk9o+09nnT31HQoxGiqlweW46ncoGinpA4J65rZBEl1wH3Ca4aBgMg0C1TV4SWzXi4BQ6Ype7vXzsKY4kWbowc4pV3BEeifekEdZEvWVOMM4gnQgpmVN7vvtESKOjTgwP1BpshTKY5haTM2FfmO1Kyl/dl3CtB2AHGMPPDFoAuOfB3OBsfFNKxseFy14+tURAAlXKmVS6Zg8+fLSj6txpNgoWIU/TNDA/3zcRF4hTz5Wucoxe1PB+Z9ox5z5uGBp6OZS4vs2M4LPM51Ghxl6Zcj52A+1FkunBxOZTlkSDCNKR2eyc/vPrISIgY3wXrh12DgUQNB58DSd/mOTAlTAFPl+zjOn0a0ny7KNEwHhCWColPcFjrEUGIT/GWhegnxNIFn4f4oOfr3FKNVAZ/tKh6uZXfwiiIwmCUm8dsE/SzPKoTCZHiHzh5kkfd4bk1G9CPuhZsBxKU9WxM7HmYmpRPB8OCSPqicuIyAmnLRxfDtyChMJYeRjzcDjRwjHQAIA8tybAK7bhnTLJfdLz4YeBMbQCVeFC5s1ENDfrFADDGXbL96BBcyr1L+NEu4hHRohLMwjkfCjgLIOws9CoG2YHLhCz4GAlMAlLIZGDXXe7cPMK/mMC+KnLHrsWXCVXMvyL0dPVZN3C4F7iTyNmAYpi/6C/F8uMwsS/w91W1xBk7hkbX4tAJVo5tLkZDhhzX0oLDED5hX5FvNNH8DBNRo+a7xJThjydKkIDHSH4Y+CzOyb8ff3Haj/MXkDgj5QEARIRzp2cuOQm/I24RTj2EJ0HmJKgywuiT6gWLLsgJamTlFOAOQBXRHchtzMHCaACCx5WY9w2PtaZ1Jpw9122vmyoauboXo2UGRODJ319CKooADQ0A3aeN9jfjTlkQhCO3B7qxU9jeczUADl5A4I+ViOqMuw9q/ENl/wDS+4pc5eoLHNiNyB6mDm7ImO05Lgsfd5+U+uHL5zoZ18ZITG4N23Gx5GIMtGtDBmB93e6+HdPIEXgYvKkBvhCXm37UimRkA5qHakmEcvaykZ5Y/ZoVIP2305KY+26mCJMvdQppBRn9h1pjJCZdW3egQkJEZHwk4cmJGlr196jN4e5/mu1RTAZifLPdjvoRJGRz8lAIkjiNfPEVByucqkIIlvsftyoAQRJEz9PaDRupxOp6FT12VOKuQNASIFgBYPJuUFM3cGq2pUUHF2yx9x27jKwUZHueXAJBB4AYAeBVDBPZDLixTBE2FSmuTl1pIRyonFfKOpxlSTmtTk4WuLxMe6jlBIANE8E+jBl/T2V8icDamu15yuJcfeGGnDyrl8tOR0hsWAXr7z0xCfjrOFnNikuLI5rjWC4XeJ0AeUdrhjGx2XgYHPbB4cnaeR1c9xyoEKhoAYBtEF9kA41PlhF0+TVvwpugyuVb18M8FuX2UbIW/wDzoaX62lCScZ+4FIjCQ6+EitTN1ycnUoVC03jisnfwL93dR3/hyadSACFGI7AtJaujBqNiwWRjycTj5MdF4OSlnkw0zxF2SMNZJHnn9l6emtVWrffe7sXBG4155JxZc0WrP167Gc9k8K4RbOWgVZGpLjnLVdpJbUOSDNp+JLItx3n2y8EV2Yh5hWqEkuY/bpQBHcqfu7UbLMBB28DiV5oesTQAW4N91k7JQ1yqbQav4mlDlAIR1NoKeQ5W8ad0dPRd3Y+AmBpAbHd8Hk79t7H2v4+V15mbbsPWlxkDrt2LQySelv8ADg3XHamHi/SUKPQIBkFjyiMvEQRiyxHGMaBtjEuHQKLDIc8L3c+W0WI+ayBmtKEegP8Aqd7tbqkAl/w1oxGOL1X8caI5cCA0DymgaMd2M+DNJjTd49txw2ioRhMEp7RUNwb31PHHYlUg0gbI026zeBvYniU7JN1Jvvd5TUv7W0S58MjysZhXoJO667JUkx+hcfS3GkVaGHYKu4O+IQ7jz06EWgBitKxFe4PV7G0zbhFxzvdxnQWGiDf1cjTzXZgQiSJRQVE9wftpupEUSExHYmF4hCJmVCiCD0j868fPhQkmksXYdkmJEDcAO/pBuMHVh+KRklWVqZRiDiq+x577UAn6XF5bSCzAatfgzrEV1OITN8MqbEl+4C70pRUmAG5qe1PNmN/6KSrg0ZRsBs33wKYFTOd37UaYpTI8/DADBNw5lv3mePHZHCnOTOWiUjSikxJxHUbedfw4cJFCrCA1GKnlsWcSekRAw90PlsngumdAPcfPItlBzhPcdg4X40nCi1hDHL4GB/vghlAnoAbtW1SSmwKxrl5RSA2lEq8fEUETKGeMrNOPNiebXPuOFBheUSJvHwCGBFWxI4OJzN20m0FHeU7J58IECA0ZHZq4UHZvSF8P2ewgUQhefxR59wSYiYnIzKWyHaKdEntReRxHjYxN118DTMLm+s79HXVcAyyV8pv3L7fU8uGD3o/Kz7BMnTaL/fQ0Tcjemxm5UNRt0aMlsZS04AcJ5UGA4AgAy8+RhAR5ydxq/UT2T8vSfcMbL7iEn59IUnahq9d3+U5dVCVOKu2MSMdQF7F6zsoMDqT0KGDIZqe8VOA8C9mnTun2aXvV7LUEJxY8mnaDA4R3JtOzBG4+Y70GtD0gcH0mqY7j4r7ko+kg3hPrns0q9r6M65QGgsc21SQtTI3BoFtsC2MCd+5oxaJYkEA0DxJxAZI03GjyqLy35yG116qLvdC89fSQb9VaUL2ekxezOU+0fRmUpQZFw5xFIoCJZHLZgPmCwZu8d3g+STxOg3/S5lN9ZdknxsSoFZGAHSXl6R2dxqEl9oekl0x1/Vs1v9t6Rwxzcne2Q8GnZFL18l9qj0YWAeUkQkDGGQM+zSBTFuRI4qDvUjvSlnejN9LP3Rw9vpLDY3qHzsvPMd0/D8tf/wDR0Wum50D8eknYSsOU3Zdl0pfyxCOGQOg+FR+JE3L5o9JBZLEaiTubJMbgmkHmQRADFcqQYfra0KwOuR+6gQkwRkfDoZcjq0MwTbv9aFP+Ag8za2BcRAc6+zfNfZvmvs3zX2b5r7N80IwfW1rHw6H/AAe9MlJ/fCVDJamCg5JwYTlBoRJLnmLBLlVw57ompjLQHUHtPpDBkETeVihi5KfFS2wIhvQfZfMcNEUCHHeAHfbED7ALO2TrUenn+HUw8AK4FbSCwcXZq8PtgTG/aYpB7mCG+8cvGuU2k3RB2Dbj5YTF3Bm6FZH3iE/b3a1jtaenm+CXIMUmODhyiiFDjLIm8zPby7owpXBB3TZPBizgV9npYoQbVQv7qlKxrzXv5n0mvgzlGRz+j18H2+741PgKwEtfwq/hV/Cqb9FPfFlQyIPXYf2ZXsauFNUQgNt471m7dWQp9Ckp4fvlWsnWujsQKDWhE/HlzwhFtF3s67J5A3NLdh6WGxkHD9nRSEkJImVIINtZQs6z5f0muwTtFuCzHs9NkJfNUNKPasmlyGdv2+741PhEUk/Rr+RX8iv5FfytuGI4nELHIerptUYxkGNVcu5rBSocf7sVLeJx3qM23ZXEMODbUo8f7bIBfHN5eXeWWOr+h1oCIA71YK7D5Qj49LYORxsWwurShzzyz6TXZEYlxykd1uC0mBajETE2WlHvNhLnMOob9v2+741Pn0tHxdWhICakeAd6suxzTBmMsTrY50atAkAMA88EQAJVypZeVcm3YFXDDeP+wemC4sDmONDC3g54lzEat4tnwlxdAc/L+k12cTSqw/SWFhwc7PN2J/HPiDI1BUQjlYPngmz7fd8anz6Wj4nfQA5yey2ivQncB8nR6Cz2tacTyk2W3Jw8/qnp6fMjkcZcySiXBgYiYNJgQImTYdR8r6TXZ3WpzhEkZGHXDnTq2EFxLJsk4TEjY8XPDps+33fGp8FN2/mWpX9LT+lp/S0EpsuCYUcxsSWtM5P97SLLudj49Bc9mwbNzsR1aWmabNWCo7LhM2bzZefpxODJ3K51Yc6RkohHEasclecpZzL83lfSa7O67KwU0RLDj0X4jsdEoQbiZ05xDGyGLzs86+13fLU+A9IQ4zQgDuosuQe0YTJvd8+emhPjvZczBzrV/wAErLVxGAks2Oi7yPU4/KhLGX1vzqMwS6jhwpwJNDezHUZPJ+k12d12Udwzrl36lLiTRkGHZhSgubBi53OZQht7+Mp8koT0AIcJ8Hbt2NB1MSXJAZ7FJM1oIe8bTlsi0CO4+fkdMD9AX5lAqASuAVapGpuuRBy9SZ633OPyJOlIgIjCOVBAzKrkX5g6mvk/Sa7O67bI4IzAncCOWuxMCwDcTOpGEUmUh7J4PjU+fS0fEs7F4rF2Hassxq2Bf5HPzmzHE+PgcWlDub0rWCs5i37a/L1eDhygtluePXdSwhnroZGhYi2sjHk4nHyPpNdnddsMEulvZDUYeVTXiLfGZo4+Sp8+lo+I0QEDmNEKjluZddNiVHiEImDUdGSoI9zeeCSAE9IflhTWTsrMTouDh5EfMAQ2wV4GBzpDpAkqbAVGkbDzMeRhy9WMwE0dxwODSFlfnGjjTPEAegG8x60F0i0gbieP6TXZ3XwWMhCEy+x08lT59LR8cncrF8Z4jE576RGEhNhlyJAwjThs4l+iHq1geO/uliTja6kpypexyonFaCw7p+ONYKIW+G/E14Uqst2la/ERxeTA14eta6YZrnnx9nDYMHpeYP1bpu8f0muzuvgpEeDo/NMOvmC2SPuO1s1pJJWOh4fn0tHyC9ml2beOXY6Ujn4QR4VDlAJV0KQtVYQnHcWtGviikFBt8gatXQKQYZQ0Cpy8j2HF45GtDINJkHrUERJHEpGffgFlu8DidMqcsiQMI0VEY5aLLrv6+KMOMWKGAiI40Y6HdH61GdyUhjFgA5eEUBw6r0FymCDuFihVEMSGaMVaUmVb1brtnk4BiDCREpw0O6P1q7jqOjiJAA6+TudTicDicqaPnCQPJv3oNma3sWk2ZqvkoxAMg3u96wwuGMnNL4nOkagBSZUFeevV7UFtJUqcCnqQ5c9xoftz9eMlpXubkxmiFZsO37DMoGQsmaLSECXB9x2w/DhhdQgAzaZOugtBm6MjnwxYKs7WQu+fF2Of4GDpNmaMfrOsXwz4BN1IXXImCZiZjuqWIMlbreb1+FDC6ogDetO3ZBWV9c9j2kwTyFu3HP8ABpCu0D/QOZTlLsOATMp3SzmNEzNKOYzBt700xO/4OcFZYBS/ujA1Hdo66U64KB8gezPhiAABAYB+ERXqSctvN5nUfcb85h+Mqt1pKTeNAW2J6j+Dph+BEjhndtwzaRszTLOu8+1YsFO4u0W+4O7TrQAAEBgH4YTV8sF3mTS1DblhoMns7LEzaSS0XE0eVZg53B3JiOj64xBrSX9Z7F+FYQBpwdwyKuFJKVoVF/oxL3u/sO/4kNcXUG5KexQNnj8zTHjTlkQhCNFOP4e7AaFn20lzRex60AEEbiZ+qXuxizp4jRoXWQ2tUwaHWlVlu1PfJlQ1d+hepzE4JdpuNOv4xqiC3bP9a1NOtjvjk6N9j8NYqgaseS2lAYUognovOGhAIiOCemT5A9oMXlQOW15xYBznhWMf8k0krYWVbgKbXiheo9mPCiAlEAH44fVQADUaaKe6q8Rj3HCnmWyOglnlsfFX+MOHKKk2Fn2zB3rfg2NTiYnP0IIgBdXKi9UJTxwObQaXtiPWx051jd9NPNoFQCVwCmp/vgLq9Yo3GxHfjI0PyWIi04706+17jcHE70ghbY5uTDnGzBxAxHMo8e7+6I7qlBcynownVqKFuQs5tu9aeLY7eSoErFTE4YoPQXo1EfD3yHtUo4wd+M7NNM6/goO2xirwonIqSCXi/ODDm8qFA4y9MuQ/LAgCNkTGoAc1ynXE6VuoCHduPamWJY+ypO+0uSYKGooCMAnRmoASmSO8TXevD2oD2Lo5Q0vdPad/ye81PgDu+wKkr39xdoFOwankVBEu/fd2U4EcT7uL1K39GhHicXn+bSSGppxC9rDUmhYAS5JPep9NyPbZqQhzdHwqdlRuHvNd8b9Nd3IfihMF+26u0s/xX1wmtRsIufzU1CJ+ZN7Ed6jXeou9X2qNSPNdtjtWh/ge3/SL/9k=;" vertex="1" parent="1">
          <mxGeometry x="181.75" y="377" width="40" height="40" as="geometry" />
        </mxCell>
        <mxCell id="XQlcI28_08daEvwIUnFz-19" value="NFC card reader" style="text;html=1;strokeColor=none;fillColor=none;align=center;verticalAlign=middle;whiteSpace=wrap;rounded=0;" vertex="1" parent="1">
          <mxGeometry x="166.91" y="416" width="73.09" height="30" as="geometry" />
        </mxCell>
        <mxCell id="XQlcI28_08daEvwIUnFz-20" value="" style="shape=image;verticalLabelPosition=bottom;labelBackgroundColor=default;verticalAlign=top;aspect=fixed;imageAspect=0;image=data:image/png,iVBORw0KGgoAAAANSUhEUgAAAMkAAADMCAYAAADZC4e2AAAAAXNSR0IArs4c6QAAAARnQU1BAACxjwv8YQUAAAAJcEhZcwAADsMAAA7DAcdvqGQAAFHzSURBVHhe7Z0HnFXF9ceH3kFEsYBijaKCRAQFomLBrog9qBg7tqDmb7AlEU1Ro0bEEmNU1NgFTeyCBUQEjL13Y+/03v7zPe/+nsPlvt23b9/ue7ve337Ozn1Tz5w5Z2bu3LlzGyz3cClSpMiJhpGbIkWKHEiNJEWKSpAaSYoUlSA1khQpKkFqJClSVIKSrW7lKrZBgwbRVYoU5YF0CThFikpQ70eSpHLS0SpFVVArRpJURK5iGzYs7m1SaiR1E7n0oxRtVy0jqSwp4RAVa+CjLl261Izgf//7n3vxxRfdZ598YtfTp0+3+DUhAMpf7MtdsmSJu+iii1zndddxjRs3jkJTVAa1MW23dPESN2zYMLd48WK33P8uJuJtz+/OnTu7DTfc0HXv3t1ttNFGrmXr1r4XbeCWLVtm4fCGPi1zy82vcaPG/irDb0NXPF2qlpHAGASjMM012TVq1Cgr3Llz57rnn3/eTZr4jJs2bZr7/PPP3ezZs92iRYvIwNKhtMRH+KQtJsh/gS8LHseOHet6bdO76KNVfYYUEiOZP3ee22233dynn37qGnm/YiJJDSkXAq29gbRdZRUzmH79+rn+/fu7Tp06GV+ucUNz0SO5ZWMkMITCkQXXMg6U/fvvv3cPP/ywu+mmm9xbb73l2rZs5Zo3b25h9OrNmjWzPGRogLyKrcDwQ+7wh5F077Gla9KkSSYwRaWQetBGC+bNd3vvvbf7xM8Ait3N5FJD6ZV1nl430J05c+a4li1bukGDBrnjjjvOrbteF/sNj+gPcYrZxtWqK4wvXLjQrqXo3333nbvsr5e63Qbs6i4ccYH76osvXdvWbcxAYJ54TZs2tZEEAQAZhvIoJkIjron8f0pAfsiy2B0Z0KgRJ80yaD9cdGgVP6IAOr199tnHDRkyxL3wwgvmJx0rJqp9T4KyUxHcMWPGuKuvvtp9+P4HNjwiTFWuwVI/Z/TxqDiVaNAoo7yqEHEJo5LFhOXpyyD/e++91/2851Y10sj1FVIPXKZbu+++u023ii1B2ikOlc2ogB6hY3S2dMz4EU5bLooMY/Dgwe6kk05yXbp08QpVgumWKXZUkVCxYXjWrFnu2GOPda+98qrFkQDJOqx8mAeVlrLiF8YrJigDbpnmYcQ9e21dY2XVR0g9aLs5s2a7gQMHFn26pTLkqn34TfvhUj6GIR3Cjw6VaTtGwm9Ny0aPHu227dsnG68BOrB8mb+PKozrKqXCIKzQqHAUj5vygw88yL3w/H9dE8+gt7oodnLvgB8V0aiiOFQeKjbgEV7NKBs3MjdF1YEMaTPkWWxIDzAISDohA4E0tZeOhPw0Jg1xfLpl3mB+ecgh7pKLLra4xFu0eJG5hSJvI4FhhjoK1igwYcIEd9gvB9sy7qp+nphLgKqoegKGTaoKLUcgPq+GvsKN/b0K18WkJr6ngd/GTZu4BQsW1Igh1mdIuULFRQ/icq4OoQNMiaUT1kKR/1J0x7sQbYlh0J7ww0ginQIyCqb6I0eOdKecdLLNcpo2blLwKAKqPN1ST3znnXe6ESNGuCWLFpulEdakkbfspcn3FBIy6efPn2+CoDKrrrqqa9OmjfUUxMmTnbxBfst90fB/2d8udz169PD8ZnhJUTnUHrjz5sx1v/71r93HH39s7VVMSNEph2v0hBVSlJxOFWPghn3+3LlWNgaiBSDTPR9OJ801hmx66t0dd9zRXXHlSDNs4hSCvI2EaDa0eUueOHGiGzp0qJs3b55r06Kl9dBYqlWmWdOsYAV+Uykq2bVrV1vn3rp3b7feBuu79u3bW2UVp9CK5AL5SqhMt0BqJFWDOkgeCKMDjZoU/2GsOlFcyoPQry+//NIePD/77LOmdwvnzjMeZAjoDi5+XAN+0+a48/0U7YADDnCXXnqpa96yhYVXFTmNBG8KgRkBRWOp7RA/52vetFlGqT0zWm0gLn4YEobTpl0798MPP7jWbdu4k08+2R166KE2erCmjUFx0xUWL0EVE+SvfHkyC1IjqRokw5pqq3i+4W+VjS7yYPrN199wf/7zn91///tf0yPTN6936B6GYjq1dJlb6O9DWrRoYQ+SwdFHH+3OOudsMx6oKrqQaCTqOQgSkTFMDhq4n/voo4/cUnoU74cxtGrVypQeYCAYTTPPIBU75rhjjcE11ljD8iFv0pF/MQWdon4hQS0zWLbcputPPPGEPW7gQbUtGEW6hIFgOIx2un9B30hz8V//6g465OCMbvvouPncq+QcSWQoAAPAUk8fdpq7//77XStvAPjBhEYNrJrtJtyAY8Ft27Z1944d49Zcc81shTWVIl/yD0epFCkqA3qE0ksv0bvhw4e7+8aMtXuOeXPm2P0tQL+Ii37Sudu03sdh2tasRfPsrCef6X2ilsKMFJvCGMIef/xxd/fdd5uB2PTK36QTJmOBEaZSFLzddtu5+/59v1t77bXNoiGYIj4EVNEUKaoC6RGgM7788svdX/0IgU4yvUdv0UEZCHHRS8Jn+Kk/s5qF8xdYPEaYfJDTSGBGGbFL99prr3Vt/LQKBlhSwyWORhniMZKwAe7Syy+zEYSn6jArQyJeWMkUKaqC5b5fZfWUTtd0a/kyW9o/4KAD3c0332x6xZIxugYJGAhA95595hn3jCf2obGrOR8kGol6eYwEBWe5l4eFgDCYY6UIphjmuGFC7XfZdVc3ctSVNtWyuP4P42nerLn9FmA2RYpCEE6P2BoP0Mnt++/gLvzTH92SZUvdgiVeHzGYaGqGweBaB+3j0+EzO8LY0HGoIuTUVowDzJ09x91267/s5lzGIxdQQANvCDzvGHHhBVkLhiFi8V+xSZeUR4oU+QBdCkn6hc6hhyz1sj2K33TOGIk6ZML5zb0zS8rjx483/3yQcyRhzZkp1RtvvOE+++yznNYGMxjUddf/wwwFC02RojaBnuoRxKmnnmo36egrOsyIwjUu4cx6wHXXXZedhlWGnCMJVkfBvA+C0VBIHObjC2ZO2K1bN9eytb9n8cNdihS1CY0a6ClTfaZTGIZGkXD2gh+3CK+88oo9qMwHOY0Eo2BP1pNPPmkMwEgcFDprzmxbMdDeKM0TU6SoTaD8MoJevXq5AQMGrNCxE8aIg58MatKkSVFoxchpJBgF2wB4CEOGZA6F1xR20EEH2VYT/NOpVopSQB24Rg5084BDDnY/zJhhq13oJsAlrqZfY+65N3sbITcJOY2EJ5evvPSyTbl4omnbkSMDUWHM+Q4//PDMzfoytio3dMt9eIoUtQ0ZCOB6q622cptttpn9RmcB/uix9/C62sC9+/bb7quvvjIDQadxk4wl0UhkCK+//rqtapG5nosQhkt4x44d3eabb25h/GZkISxFilKDe5P9998/q8vSS22OBOwrRMftEUZkSEnIqdEk4n11XJQfqDBcVrS4WdeqgpipaNhKkaI2sd9++5l+MuuRDqsjxzAIe//997NGkwuJoSg7VsYTdI0SkMIoiEK23HJLm3KpEMIqssgUKWoL6OLqq69uIwodt+5buDVAR9FZrtmsG+qv9DzESkaieRnLYzIQfpOxwnyuduDbhhtvlPUTE3IrA+MN25XZZpDNt8wgvtQL5QulC2UG5YLC2MnAVVUkoTLCnhLgr/z4Txz8FB/IT24pAQ8QOgdwxWchQG/RRd5h4lr1wyDIlzCMhNmSIHnFsdIuYH5Ckyc9a6dPkJGPZGE83TSB+0J5IeaRxx61N/2SrK8yqOFgkgUCy8Pf/Fc29NUm4Al+ttthe3MRdEWdAPVRg0yZ/Jxt+lSjQEl1Iy7L50xfu6y/np1YSLx8tnBjELTD008/7Vq3zOyrA7z4xoOytTt3yq48shBDW4oXnjrPmjHTyqc88qJuhJUK8AkPzGC26bOtW2211TJ6UQCoF3uzeAr/zltvrdDRUUfyhXr26uVuu+P2jL8vqlHDRvYkP0ROIxn/+Dh3zDHHZN72igSJoDmqhWU1GnXCMxOtUQupiGwWYzz44INdsyZNs4yXC5hSrrvuum7ipGeML+SSpOiCRImy/qJvP1s5QX40UK60LLGzdI48TjjhBPfbs4ZbPDqkykAbfPDBB7brun27VSwvDMHCliy2lce/XHyRbzJvBJ4nwuAF/mjbZ5+ZlJW5jKQUkNyoD/Liedv1N/zT7bnnngXrA0aybMlSO5Nr6nPPZfQ3KgdX9d5siy3slQ5rG6/byCpeYs4WVw8DyIyMRQhTfoWCV0GpBGU09tarBgrLKTVZB+FBXWm4XCBuHKHM4r9D4umvZEAcmgjZ5ANrBx+XtHRkvMagF5B4cxSQH8vy+AFcGS6AB5CLv9ogAD/Igt/II98dupXB8orqmgTKM7n7eCaDqPMOkdNIQubJgN5HgsaAJNTqgAaGzEAwSvPzTJcJwRcrINSd3l71j0NyIFxxeHOT+nDEjR0ujcxi+UPNWH2J0jHFymcEEVQWa//W2J4NXAyluTcEyRc/2hCX9rTfvhziSea4pZI/5SIDew03umYUry5MJpFsKzIUQNxcgKdESKihq0ZRhvgVClOKJpmpgSqA3woG6PPXE9OaJhAXJMM/fhrlgNbUISA3DhmY5IZLTOojuVFHlUE+/NY0NB9IVuTJfSKLIOKNAxAsT1811Q/Y6ON/h36UG/6GP/zEp+IXg5ABvALqjZ/Kl2FQn+ru3lCeYT0KRYVGArBqCrKn6d4FFF4sKC9ViKmDKogQ1WA1TcAWKSI+ANfiD3Ctm98wnvKQoiuc36qD8uGakQkgU/mH+VUVygOECqHrMFxQWWH58MpUDGXFwMP6FIsA+fJ6BWXhR5szsoV8VqWzyAXyU5mhXOLIyiD6iyN3yhIgrBCMo0wzZsxwc+bNq3GiPMqlASsD8VCoeANI2Pxm39BcfyOt/GfOnm2nobPqRDrFVR7lABR3nr/3gr6fPt145jqUU3WJ1TjkAPEYAbD0Ws7wU8IVW4mf0BPjxtsKCHNmfmtuy/BtQ7vvbZ6a8HTBq1sCS6WZ1a1MOdzMMw1jpWb/Aw+0M7rwr2lcfumlZpDUiylJpq4N3DrrrGP1BDIi6ov7wAMPuIceeshW5kIQzt4hXvABlpcn0nOO7qiRI+2a16CzCuJ/8xkBVrdIn49M6UQ+eO99O4CN9709U9l0TFmQ60WXXGy/BfggzuGDD3PPT51q9RBvNm3zdN555xnvyEFTomLB9CfiAd5vuOEGm62YfkVhC30bXPP3a+3E+ELLhm8eKbC6NWXy5BXyUflQ1803t/MY7LeXAYiXWFZGQoPZzWvjRtbTnH3uuaY4DP01jQE772wKTB01RUJ940aicHi9+OKL3T//+U87FAN/UzQfxpSMI2/sIIzI4JARz03effddt/eee5oSItNyMhJ4wGX3Nw/hmA4RbmFFAvUlP3jgHOkDBu2fWRRZ6vlAtzwv5WYkxat9sdCwgd100mA0Eg/aeOk/TsTLGKyvlP8tN074EzekpHgogxSmsoZB8SH4W8L9Bcrp07GShctvlaXymWNzgiD5c+6tfaIuekGN8ihb5RInXxBXPKMYSmuN7knh+QAe4AleeSAZl5XqEvpVRHEZ4CI38WrvH/kORTfs5YqyMxIaCsHhgly9GA2vHglFxU0C8dQIGgGSEKYn33wUy5duBKSQIb9JPClcvEPwxW9441rp+A2RbxI/hCkPwhlxkR0gH1bOFJ4vqA8jnNLgIj/JMBcvSSAtPFI32ohrAT/lJZmUK8qbuwqgBqhMyDQuPT6QApUbUG7qQZ3oaYF+UzdcKA51JsTBxTDUYZCP5IJ/daCRkzJCRc8XMjD4pV51DXXWSGgslEGNhiKoEUNivksYjYObpGylBoqNoag+8Iqr34QnKZfqo+0cuBgG/uQn45PhFQqVTVmQ+KuMZLDwhIHwuy6izhoJS6kogxQllyLQWIRL0fhdToB/FJxPDKBM6v3hFZJiUYc4pHi4pCeO9m+xUqc8qgPkJZ64Jj94zgek0+vfpMNVXnUJdY5jNTyb9/r06eP69u3rttlmG3v5v3fv3olkn3rYeuvsyS+lQpLC0tszArDaxWfMtunV2+qz7bbbGu/Ub/vtt3cffvhhNn2Yz8823cQ98+wk9/wL/3VTpk0zemzcOPfc1CnuzOG/TSyzKqDzYbqE3Dg4AX7EWz7EyhuvXeR7fE85os6OJLN+mO7mzJjpZn7/g5v+7Xfm4hcn/L/56mv33TffutkzM71tsREqrwiEZXGdVLZGQlbFFvped/r332frM+O7760O33n+c/XeGNkGG2xg3zRna3yndTrbd1/WX39916FDBxtVqlNn6pLNY9ly9+3X37iZ02esJOckmu7r8OXnX3gly3xkh1Gk3EbyfFBnjUTKqCkALooUJ0HxoZoCSiBjqKpixnnjWnWL81xZ3oWUXxHEg/jIJes4EV984Ia/6xLqrJGAeCOgpHGSoilOTTUSZcQpjiQ/eAz5UpzQL85zPE6cignyE4+AsuVXGYHQ0IvNW22hzhoJApfQda3GCInGUjz51STivAj6LT/Fi48WcV5DCuNCSagsvKogH40KUEX8xQlwT6O61lXUWSMJFYZrKAlqrGI2lMri6XS4PR1itQk3VCbBeHWZFStu1vn+ONtHwvRSSP3mGorzL/84KQzAH1c/clB1UKZGBUH55wPqAJSmWG1Qm6jzI0lItQEaXUrDq7284y/q2bOnuZwiwykcvEfOt/34zqToiy++yK7G4Xbv3t118/Hj1N3ns3m3bnbN/iKOvnnppZcsT1xdx2nq1KnmUq4ddB79FRNVkXVttUtNouw2OJIX+bO+ziewjzvh+ChmBmJ3l/47us8//zy7PJkLFt8rNfn93//9nxt2+mmJz1R23qG/4+xjQH7Wi3s3aReweFC8eH6MFCzl8onlcG7OKlGXLl3cuHHjbG8TvNseqRg4S4AVIbv2ZbF8utdee9n77PmAMvmw5mGHHWYbHOGT9gPkx++kDY70+bh85GaNtda0+Koj7pPjn7BPGxDH9qhVAvJDFhju6mt0zE69KA+inCOPGGJ+jX19Tbe8f7rBsR5Aig9oeBqXaZQdSeOvmeZgEDSU4tIIbIDkwSEGQkOxeVMKExKbAW13sHfJ15THE3lVRlLEls1bZMry2dkBHikKRmokBQDlRxnpYQ2+x7K3DL1CQowC9LRNeb4QubwzwbMCftteJnbIeqDQnNARkvwxGFz7bflWTuSPSxlLFv348f8UhSNRetkeLbo217cVvVoINWApAF80vhRVfCZBcSuKky+kvIKmIkBu2KNjULjEw48t8tbD42exI5CnJzvZxF+qbmHecZLyky/gzUIWA2SM5mfZ/shvMVCV/OyzgV5v4DfbqdQCKE98htdxmF5HfHnp218ciUZCpnrKyrwc4fsWsc9PsxpjjeD9bd5XIsAHBG+QeIsTwlHPCujxqwPyQyk1lZKiJjWIlR0oO++R4Br86MM8HCxekuGNeOG9COWEeSXB8vWGoXDahnsYlVtdxbR8Pa9M2TA8O2HF550k6zhhHJI7abJ1rwXYaB61BXK0joS2go/gGn/JUDOBOHJqDJXiBD0+rcVn3nhTjXNVOV9V/hhSKcH70jSC3h2nonGyaYdXFK6Z4rBkWx0g0LCxyVfKGCol5Uoxcim4IGOI5yUQFpYpYKjEIx1KiTyQA6MVI0r2BaiEtFUB91jkgxx5T51FEMrMh+AP/mW4lcmiWMBA4Rs9beeJLTrocZz47js8yViS+POdw4q+/KRiVCh0ga7JTPNyrqvTCIWubvFuOTtfAWkwWPVaIVo0a+4VaJkpUPceW9qSK71MHFVZ3SKc5xy8omtfAluc2RIOb0r7+KOP2pt3/FYYo916663nHh8/LhsXo4X3RQsW2muzjz3yqKWXQkH8fuqpp+xj/iFI3943/imnnGKrZHYSpI/L6SOz586xlcdt+/bJlB2MUKTLd3VreSQqRhJOpJw08RnrbPKdRTCysUol3oDqVpOrWxgJowJtgA4A5Q/IF0Jnws4ew4bnEIlGAtRLkQFu2GiA38QhvNCKgEKNhMpQtn6rAeJAObIN7V34LoaRUD4f2R81apS94y75KC3TEv0WkoyExuQaxead+csvvcwUKizL0vrf3PyHoMa8R//444+7ps2bWadlfPv8uJYBAk0jVG6+RkJvTF60NXIjXKNkZaAcq6MvgzxA2G41aSTU3cr0U0Ur30+zpQeC8oYn4oq3eN1y1pTI3GBKqCQkI/xx8VfFiwnyFbgOf4fA2hVmQvZ8JRG9HryLcuUXLytXPEAYeVGule2vIZTYVrEiuSiOoOswb+UhP3g2OUf5sTJGIyU1lPIP64ZCcK1wUFFdQoS8kg9QG6ss/NGLuJyTiDQyEOUXb7d8easqVCY8wEtcDyDKV51VrySsJPswIaAwCUogHD8VVCwoLw3lSXnjJ/+wsrkQCsNfWY+CQOKkvLgOy0gCDRvmp+VfXPxEuhHUb6ZoyE35W9mch+zDAOf34odx4KdD2zh6KAnkIV4A/KOEqrPSw1c+oCclP+VpFPFvdfP5xnWhIhgPXkFxVW/5U09GJPxrwlAkP0FlJwGZmSF5UMc48pNeLUHCEsOCGq5YhMDiJOMQkoQFSB+HTRPyIOqFYlAWwKUcXPLl5halIdT2Xfk03E9Vd7GhKuBoIuQAP/AqmRWLqKvqDZZEU5xyRlkZCUB49LgSJq+hhspcDEoCyqkG0/1YEtS48Eg80uQLGQE8SFFIrzpTNjeaKJPKoYyK+C4mmG6wUkj5LHRQJtcqv1hE3TSKUGfKKmeUlZEgQBoFwXGN8Ljmoy41TTQaZUnpKT8JamiGaHpdPrzayF/nQyw3ooiUISMhH641z+c1Xq6b+bwbe7dl69auCStDUfk1Cfji8wdalUP+GE2SvAol8mNVkjJYnEHulFnOWGl1q7agYqc+N2WF1S0aqoVXPHpWhMfqD8pTTCQZwKJ5801paTxWlyjfe6ywuqV08K7RhpGOHjFfkAfr86o/9cUo+I1SojjkS57wgBGhWEcd+Sv3abT6loXnb80117SlaJaANfokQeXhwkOu1S2UlmdibJCkA0AeFeVbVah88qSuLC0jAxYqFF6M1a1iouRGwhLwIYccssIScLkApWE7/BNPPZlVlHz5oy65QB7xfJCHZBKGY4xM0/bZa2/3v48+ysYBPDlea6213Pjx481IkvIVlA6XODIS8gf4KawmsQL/Eb/yQ2bImc7hqmuucfsM3LfG+ckHZTndilNdhBQgJBQA4jqOeLjqLTeeht9J+RQK5RXKXVRMxPmuiTKKjZIbSdgY5S6s2oQUKa5U4e+4zMJ4VUUu2Vcnz4pAvuIfCutVbii5kajnlJtEtYGwwUTVQVI9Kso7DAvjVPabfAG/dX+RRElI8o/zXBNQvqFbEZ+lRsmMRAJa7h2IGTzbQDTlKAfiGYW9/ARvFTSgGjgkLQ/jinIpsaDfiicXIC8IvrJuI998Db2CZUSZTZNN7zKk8DjCvGqTwjJZoIiHKbxcULIbd8BKyjvvvON+97vf2QoWrPCEt2zgFXCNNdZwl112mTUmRAPGERchSjplypTsUirhpgSuga2c8Y1yq2sUpjw/fP8Dx/4x6zi8PzIhL+Q05p573fTp01coHyNhWZlvletru8A6HZ9uzbXXcptttlnGc9mP5YE//elP7uUXX8qWUQ6ANwh+hg0b5vrvtGMUUlqUdHVLResZBch3C0VtgFEEHjEOGg5iSTaOuAgZNbbs1t3ecScNyomRkA8nK4ZLyvgx4pAHmxsvuugiMyR+IxPCWCJmmXfjjTdewUgYJV577TU3YMAAMwI94yBPeOcd90su/WumfG+gAr/Jl42ZgLLCfEsFjbZmuL5u1KMcUFKNRCBSBpSIa4RTLiTFBjYSeMoH1IuHgig7Lg8dUWCRDEd5h64eJrZu3drkwrMKM0w/qsX5Q6nsGcvSZfauT2uftl27dsZn65atLEz7yUIjkMxtxFFe3qjCvGub4IW3GDV9hMdyQcmMRI0m5UMoKAn+5UJmtF6hIYBfvmCTIg/I2BGsazU8Sk+deR5Aj07+KC31R/Eph4bRLmDb8BjJycIiF2AE5Me34o1PTy28cTI6s3lS9QBKC4V+lKs8S0VAcgDwUy4oGScyCikFQEi6FkJBFkIrgN+x8Hi88Boe+U2DxXtahUvZBOWnRqZOGILqSxjX+NNz0mtyb4HBEIa/RhvyIG0uoFDIj3yhBfPmZ6YsPkx+wPiP5GzhgZxXcD1ZL57xyiLJT1D6JMTDwrJCEpBLnL9yQElHEijsOSAEhKAA13ElrCqkkLj6ywXihQjn8aQXf/pt4P3vBB4z73j7YE88GbffkbGECoAi44cc6P0ZebQlhrSs+JlL+hh/xCcv/CGmd+Rn+UQ7GGRkKpM66DrkQyAtoA1UL5UNyU/XEGXIX1AY8fRb13HAB4QMREm8lQrlM6ZFkMDUSDSAGqgQYr5Ow6sR5cZBeepxAWnVUFI0xQnzCvMjDXGsXO+vuFJMNjlyrXBW8nhtF5etJ6YckdFQJmlwUXylwdU1kB+gnsTn3mSxz4/0+jIweUiWlKX0IehASAM/xJPL0UR0GGEa1Ylw+BYPIV+C6gLVRZR0CTgOWJFSIND77rvPPffcc9USLi/eoLjzFsx3e+65p9ttt92sgeNgVemHH36wMBkDCtau/SrutNNOy0yNPH8oA/yhNI888ogb99jjmS8Ex3jcZJNNsithpCOctOT92iuvulZtWttKFGHkB5+UxV4xlY+r5nnvvfdMuYHKQlbz586z13cZgRYvzLzUpWc76663nn3AiPdRKJt05MtGyuOPP95tscUWFk+gLHbq8hrxwvmZL+OG9dqk66b28STlI5D3nXfe6V5++WULg1QeLkv8LCxIfuRbl1BWRgIQolg699xz3W233eY9C2eRG1q2mvMN9eFnn2Xr70mNtF2/X9j5vSgZPTJKAB/rb7iBHfaAIcCb/Dn8AWW66spRWWMgjDjkMWXaVNexY8dsfIDyvvTCi2asPNeQohHua+2GDh3qzj73nIyi+ST4c41x7L777vYcJQmUp7cZgfhctCTzzga7avlNXmDmzJnurnvutjxDYJRsY+/Xp29mG7svl/TkRx677bG7u/HGG/2I6I3H86dyMFYOo3jogQezZRjv0b0W5xIjC1bbgOLUFZTddAsgeBqMOTYNgRIWStwEU0lcVoJo3CTQcCy3Ujbl0qC46k1RVMKk8FwTRjyIsviNUuGGowDpubYRwo9IpGWpF75aer6Iz2/iEab4XFN/rhlpiCdS/eARJcVPxq088IMfxcMfOYjXRETPW1iNY+ma9Jw20jyqJ/lSHuAaEEfliS+TiR+JWcomjN9KV9dQMiOh4VEAFIfGlVLhB1kPtmSpKUcjr2v5EJWhR/XDY/bayvIuSk6vRo/to65ELLX6gi0tCsE1/OhJNe+ZY2AQPbYpSDTCqTyIaY+We60O5AlPnjjSIUN+GoJi+7pxTwKfy/y8v5lXqgZLfXmU4fNQWlxAPJHKa+DvuVo0aWqyQjkVl/LhEx7hifLgE5JckkC5jCDkZUbtfy/g8Dzv8hvogS9liPBrGrUV9YOIpXf4SYs86iIytS0REJwpj1dQUzoPBInQpVj0ZkxT8iEUhLykYOSvhpa/5e3LiRP+Ciet8pCfiPyUN4oEjxzaxuqVHYLnicPhBKUhH+KS1v+wMKYtjCz4k8ZWwHw4aUJIJso/pCQ5xClzUF1m2qV0xkcMqjNx6bgYfehgGFkoHz6B+CM+wJ+XtChruY9CR8Q7+tQJuROfOiCHeN3qAkpqJBIyPTwClALir+cGEnA+hNIyYkgpIRqJYd4aP8pPZYVEGGWSB/GJxxSBdBD5yxVIR/74UZZcSAqFn8pFeWxTIvBxlB9hTEssXRSOHyDcePf+XBdC4okOR9dQHCYHXw78shIHDxD+yIW8uMYF8AWIgxxIB5E3cZBf+Gaj4tQ1rCypWgTCRTERJDfWEDeOrLBoCgbC98QrJN8wNAQNqgamIcOekLLmzZm7EoUNbkrp42JwXHMTy80uq0Lwp9dsZdwoA70u5YrghbQqV8rBbxYBCOewOnpq3mWn57UtGVF8QTKgjDhZOXmQ3WP4skiDy+u5qm8IwqgTI5zBKzdlkJ6Ow3j2fvAIJCd+G08+HnWiPiyWEJd7LcJVj6Ryyx1+ihrVuJahYln5OProo60x1BAARTx92GnuwAMPzMatDMy3+ZLU/vvvb41Hg1ijRD0ZPSmvuWpOHWKuN0w1phScaQn5rLJq+2xeKAMuynTiCUONPy0Ph2DJU8apnpR0GP+3337rmnEf4X8Thss0BYViV6/iKgwe2AHMdQjyzrUQEYJpkORK/ZAz5znDXwgpMvyFMrJyPA/IjnoB6o8sAOG868/9R1hflcV7+BohyQeqSyipkUAcBME77twsSyFQBYwk6ZhTIUnQ5PfJx/9zu+yyC1qWVSrFrahxKhOD0opH5vl8OeukU07OKmCIisoqBLn4i5eTFE9+8bjF5rG+YuUutRZBI9GAEMoXusVCqAgqK4kqQ77xUtQ/lMxIUF6IoVnXNYGayre2IRnFKR+EcauaNkWJR5J4Tx42YGWULzTlqgwhL6KqlFMuiMspXgfVLUX+KKmRABqROT3EqBIfWWhQbgDjVAiUr8qrjJSmMmCIcSoVKDsuK/xkHCGlyA8lX9169dVX3fDhw235kQZFKQljVWSvPfa0b51jOPgpjHh8kIdtJAA/rajEb9xNyX0Yq0qssvCp5Lz3gjVsYO9o2KehfV4yHBnB4MGDM6cMen/VR3xutsXm9uxD/vgZL3kizE8u6SmbusrFX3GQi44lZbWJFSiBlSzeWrQ3GKNnMkn5UEddh+E/ZZTcSGhYGgGjQAmkiDTw78/7nbv55pstLo1FONc8T3nm2Ulu6623Nn8gBYwbiTW092e17KyzzrLVKLaD5AOeIrOpkA2J4ZuF8MySNS588iRbIA5lvvLaq3aIhHjGFY/5QGl0nQTKx+Bff/11N3bsWPsozscff2zyoe7IUuXym/gs/bL7t1evXm7fffe13crA4jfJPHhVOuXxU0dZTLfUGCgXCkFDsQZP70evt4rv/dq1aePa+56wQ/v2rk303jfxAOlMYRJAHOXLaIK73OtePkQZSgufXAP84ZnRj2cb8AfBn2hJxBtQ+nyh+MarJ/mRJ/VkS/+YMWPciSee6Lbddls3cOBAN3r0aBvxkCPPWiBGWuSn5y+MJDxMnTZtmrvyyivd3nvv7fr06WM7o59++mkbgaiTyqO+1POnjpIZCUqA0uLKQKSQoWJiLCgGjRW6ygPitxo3DvxRLlziouAygsqI+JQHP6TnOiyPUYTrkIijNMRVPXDzheKGachj5vQZ7l+33Op23nEnd8pJJ9v3FefMmpXdVMm77bwawENVNmzit9TLmM2NuJ4x8yc+z6Vo/JnTp7uHH3zQDT70ULfXXnuZ8TFlU4dCuT91lHQkkeLSGCgWkMGocdgaYtvEmSKxI9frjW159+HEA7hKHweKS540uuI19OnzIdKqHHpg8QS/5Jd9ou58nIDgL+RHdcwXig9xjdLecP0/refnvCzuNxgl1AEAeNQ1aSgf/vGn/sQFxCFcpPsWRpzPP//cHpDut99+9kIZcavCd31FyYxkmfM34NGuUSkDCK/ZykAcffXJa27WBXZ0f6BMvknd8ka+8UkX9eqZ7e28j5GpKq/zLkeBScPv6HqZj4+r37goF/mSD9dWTmSkKB8GjP8yz48IHnCtLB9fhqY6xYHxEQeFxIUAyksZr7/6mo0aF154ofv2669tNGCrO3XimjJCqEx45lrEb/KDD/kRT364DX0nxFb3j/192GmnnOrO+e1w99knn2bjqi1w4yBOfUVJRxIUDOWggawR+NQzso5GDH7rALUQpCNOy+Ytsr03v1EsenfyVM9J42mPkZRBCkuYrvE3o/K/cXMhHP1Iw4hCfMjqEJHyNiOK8k0C/BJfsiAu9wbwzM04324ZN26clQWUL/FIw2/ljyuQl3iEyI/fSg+4liuekaFeAHvQT8O4uecAPKVTneNQnvURJVvdAjTqZ599Zu9HYwxqZDUG3y5niRj1wE8NRe97+JAhtlIjEMZGQ3bp3nrzLZme1gMDWu7bj4bdxt+kcqNLT6hGxUWhjjzySLf66qtnlRGQ57tvv+P22GMP670lKuKQZtu+fV3Pnj1tVBRvUl7eIddmQIWpzBDKE/5kKLh/+ctf3PXX/SOj4N4wiRfKh+uQV/wsr8iPfAiH8A9/Ky0xMQ7SUib+XBOXezcbKaPFi/POO8/L/AiLo44CyK3PKKmRoBjTpky1OTCrQ+qFBRqD3zRS2Cj40ag0YthI7PKlF6YnVDqmRvMXLrCeNHzXG6Lq/Cafhx99xJZGw7IIjxsJCkReC3yPe+aZZ7oTTz7JeFFeUmQpnfxUZhyKT3qmj6RjtemRhx62G2xAHoA4IcJ8iUP4XJ8HcmCEQtEJQ87wjWv3eNEoS/6kkwGJF8IZUVgN4/6H+s736c444wx36rBfm2x5NQAk1am+4ceuqJZBg6LANAiNoIbmGkXRTTENLUhJ1KC6edW7HCgBfoThT540qPIgX/xJzzWufhMHZRHiCinAH++AyFBJSzki/SY9LpDyJUHpAHXmZBGmV+KZ/JhKyiCA8oYX6sw1S7nnn3++G3v/fe7x8ePc0xMnGPE8SfTQIw+7u++9xw7E4BkT4PkRMlCnomvqpiVhyuaYolGjRrlrrro688ZiDvnUR5TMSMBy3+bcCDJN4tVVvb5Ko6OwuKFy4KpxuJaCSAlpZMLlZjwzaU2h+elJN726tgeFPho3/LhMnyC7UbVHkRlwn2T8kMYrD+A3aSjHpl3RNXyJXxlOEginruRz0Z//4u647XYrx3j16Qw+P/i3sqKy2arfepV27qjjjnVPemO46dZb3CGHDbYdChtssIFNRRkJ6DR4yYqp5Kabbur6+ikiz1fuHTvG/efhhyxNs1YtXaNmTW3RQa/2incry48qjEAcWnGxnwbe/q/bTPaEU2eOLIqkXS8RtUJpgBJAavxcipQv6AHV8wHyBPihiFI0KTAgjkijCcu/jTjUIBgpeIqtdOIXlzhJUJ7EJw+uk8D9FeGcncVxPUyVkqDVLnjEQI477jj36KOPuj/84Q/28VPKoZ7iMU5xwM9GG21kxyI98MADbtCgQdnVQt4spF4QMsWP0YNwPop6wQUXuP999LHVX3JdypuV9RQlNZJQyCgA5P8VTORDnpaPh5QUBSOMaxSJuEyZRJiUNwU7ucRW03w6loTty7CcXujj0xvTo0tRAdcoEdOhOEk5ZVC5gPK9+eab9hYmPC7xvGrRIQTxyGvtzp3drbfe6s793XnZ13DJX67KrYyIa7Lw6OzzZIn5pptusrcwaZN50dI08XhaL2NmesYowqrb999+ZzJCdvlu9amLyGhTiSDl4eaQB2a8R848uFDCGHBlLIAy+I1LQ9MbKr42A+JiIDQ0y84YBorOiYhMfdgG8p2n6Z4/XqPlt8qzKZ+PEycUjTJVRxQzCSjeH373e2uIhZ43rYjFwejx8549bcXvF9tvZ/mh5Cgy19QRqLzKoE5DwAg5rI79X53W6WwjGu+sI0XkRsdAfLsfsQ5kqbv00kvtqCXkYJ1FPUXJVrdULEu2LPOioHZPUA12OIMKBT799NOt0VBA9bAoLb0f0wrn74EEGp4wllvhBaXnhhg/FLe1V1pOJ0SpLCxSTA48YIr03NQptgARx+hbbs5+KwSEChni7rvvdr/9vzOzy7wYKfdocewzcKD7/e9/n9nB68NVNxkH1yojV1lxSEYyNEA+vON+xmmn2x4veKIGhKttSMM1Rjr6lltc79697V5MvNQ3lNRI4kVXlxUaUruAmbJIcdQbsuXi16cNS1SiPQbs6vgUG5ACspDAfH/cE+NXUBKl58tUrPjwDXoZA3FQnsd8mk6dOmXj4q88zM+PVF9//bXr37+/H8UyUxmFQ/w2Q/Vuz1693I2jb7KbcOVXE5C8MBo6Gw65+OSTT+wpPDxhBLgAF7lyX3P//fe7Fv7mf4X6RahJfmsLK3eBtQgEGBIKUR3KF0lpUcg4oSwoDoA/lAQiPjBFwZh8vHjaXCCN0rE/KnzWozDKYArDqMGh19dee609+6lpwAejJfXr0KGD3ftwo25TLM8XwFV7Qe+++66bPHmyhQHJpj6hZDUKBS0qJZLKj/MlJZbChOG6DuMnQeEYhx0G7oFfmC9GxzOT2XPn2koSp80rrCZBGbr3wIi5oeeFOO4Z8cMA8CeeOg9Gzdtvv906Bvwg4orqA+qf2VcD8YZVo4Okhg8VO18oPjfgb7zxRmLPS5w58+bZPVTfX/SzOLXZQ1M+oxmjCl/23WGHHUwOGLamXHIhRsS33nprJR4Jqw9IjSSADCA0CPlJIWQ0IB4vpCSol6XXZRTRNCZUJsJZFOB+5vwLRphfPE5NgbJVFtcaVXiWwjIwvxUWGgT+3JcwRcSfOKprfUB5GQmN5OWqhmJp9tuvv7H1+HxouqfZM2dapWgk9XZhY3GdRM1bt3KNmzdzrdq1tesWbVq7Nv4a5fjum2/dD57IH7Lr73+w5eTWbdvYClhL3gD01MrHb+7vH1hCpWyBMlAglpd5eYpXblnR4oUo+GSKRTh8s9dsv/0HmRGRjnwI47omIR7hh2tc0KnLuq533z72NJ7nSrY7wvPL4gh72tgDNuGpp41PDAU3rHtdR8lWt5Lgm8B6WT2Y+uMf/2g7evXQqzJoRYsq0YjZqvmGR6FZ3Rp2euahXRzMu0kLUBSl/+Kzz+3YVFaw+A3BD9Mh8vvlYYO9Ua6svBhP3EiZrnC86Ysvvpg5HtX7yTBwFXfWvLk2henRo8cKhhFe1xbgiTbh9d7DBx9mxk+91BEB+GrRqpV79PHH3Nprr52VE/7Uq66jrGrg+/RsL4aQNXzz6mk+RKOhiCg411VRKkaM9u3b24oSzze4xtUzE/KUy3Iy4Jpl2bartFuJpBzUQ2BaQh7PP//8SgYkkCe7kbt162ZhUsRSAR7giVcM+FQdfPNbYXJ5uKr3TgjHrz4YCCirWvj+x1wpBkql/UT5EEal3cM0Ejee+UINSpmC8iUMPmh8fjOSyAgrIkBarpUPSsYh4fCGH/ngL8Xi96GHHmppQTy/2gZ8Me2j89hxxx3NyFUfSOCap/WEIZ8wrK6j7ExdDYDLqGA3i7xymwehbKSRQoUKXxnUqGHjyhjwsymGz5/fKI6UxUYEX1ycQpCetLiQVrVIC8iTssgXI2enruIDpSsFQj62335741ltBOkavPDCC1l/0lGf+oCyMhLte6IhEDBKzldzw3fIKyQy8Y2Dq42LgH1GKKE1cA5do1Fp8NDlUwIKgxeNTJn8nW0Rt7ccyZNNjZFrxKVXfvKiLjK277//3n3zzTeWn8KBGQxle5fzusRHSKUA5S7xHQK8sgVfPEPwKHD95edf2NeACZOh1AeUXS1QKASM0mgkYRpVHUL5mC5JqfMFe6TYTwYf7OuCLz5xxm8MxhQ7B6Qoqotgmyk9T6QnjowHl3jcG2HQ5QSUHeKpv1bcksDrBOwSFqhXfUBZrW4BlAXQEByEwKpKdZSGlTLyZFmVI0lzfcc9CfSgX375pT0nYAs9fPDZZ8Du13XX65J9zx4xSunJn+N/4nutiPPGa6+7XXfd1RYEOPtKnQJgFOEo1kcee9TuAYRcSllbwKip+9dffmX74li4YCUxBK2G4fPdfXYRg1LzXSyUlZHASkjyq46RMGViBLE8/JQM5PvuA6MOSsw0yk9+MgbgRxeMhxHuz3/8k/vHPzKHNQjEoawJz0y0bR2h4aBEGMmAAQOsV+Y5CaCOls4bDVMtjAQDE0qtbDJknhftvPPONpJ6hqPQDGQkzz77rFuny7oWP9/OqNxRVrVAGRAsAmbqUQzlQKlRaPIVVQUovE2XvIHxrUPcpn7KgeJwk22ffo74Jp5c6oA/BqUy8WMEAYoD5ALih79LDXgRr9QZ/nK1C7KiruHoWB9QMiNBiPSeAr0QwgWmlB4IHAWnUQol5aPrqkKNDa/i149zWcWn9+eK6QfE+/L8hm/qQzzygPDDSHggR17iiTDFo5dWWSpPcikVxB/TLowkCfBI3Vq2bpUxKl+1+mImJTMSKbGUgV6I3zRICH5Xh0IwbYKS4iWRxWV52V+LP6ZdEMA/VBp+y6VOUnxAWhSJLegYiepOONdG/nqxNxKbzkRp5CqfUoHyWbygTnRo8gPin4evek5FvPqCktUEQUrIuXqncgC9ohpcSo2y61p10LUorJOUnHx4ks/NPn5xIyJPboo5k1eKRzhuqSAekAM7fam7Rnog/nF5Ik8HoN/15XCIsjB3TU1M4HrOUA4UAP4ElBuFpkdlaZl9XBwKB3EN2ZTD1ydUcK5Jt/nmm/9Y3xgwLs7dCsNIV0pDUYcwadKk7CgSB3G22morc+HVDh2vJ6NJyVa3KBaBvv322/ZiEYLFL+l98VKB1a2OHTvagQfhTSku/PKBn/fee8/CBOpA2LZ9+2SnVUAuq228pMQhdOygBVZvb1TIA6zRaW17f15n8grhdW1B7cQBGDv139Ge84B4K8H5Lbfc4vr062u/eb5EunxXEssZJTUSMGVK5jvu+vi/FKe2kSSGRX66wBSCZzUoaKikxM8qfqTcIXL1osR9//333S477WzLvNwM201/lBfuD7Nmuvvuu882FbKi5kvOhNn/moOmUpKFXPw5PPuYo46213ntGyieTxsNI77Z9czyLw9DrR19x+Enntn7t7qM0nfb2emNVzRPCLhciFFNI1uoxCIBxYpTGE8kpePmfa211jIDCY1NaN2ylR0YRz6EL/MjGgpX08CwmU5Zmb7+8IXL4gUnS8I3nZjVx7OjxQxcDszQTbuNrNSr5lmuFZTP3MYjriwCgq9psoaPUUUI4yXllwT5c/PO/J3f8REHP+7RHvj3fzJbPHwHYps3a6lH1tRRvMLfRx99ZDuXtTzNfRMGzEgC4HOnnXaytDJsUJkM6wrKykgAAo5TfQFKI6PgUw8oW1L9eEDJgsAJxx1vikma2pQDZVEmRsC9yNChQ80PI9CUTKt3GDS/+Y6J6oMh1SeUjZFUpARhr11TVFXAb0WUBMpROAdbcxJ8UvkoHQ8lOaqH7yLGV9pqCiHfXMPXPffcY68awxPKj5FgQDJeDINPZ2y44Yb2MFHTNI0y9QElMxIphxRELnNiPhzjW8A1Y3WoSWN797ymiQbXUjQ9pnpDKYsUCBeCT4ieluNZQ+KhW/j2InkpverJafpDfnVk9r6E8gHzeJWNYnIgNp+dVj5G/v6Ez2dX13QoFyVXeaFiwydnFHMAHzfjhElGHLnadtX2tqLFtp8jjhxivALiQPpdH1Cy1S1hyuTn7Oic8B1yhI+S8ZGcY447NqtgNYmBe+1tO35RBhQE0gmOT0142uLQ+AqHp5F/u8Jdc8012f1YAvHGP/mEfe5Av5UmTM8rr/vuvY/7/NNPM3F8NU0ZveIBrlFKVthuv/NOt+pqHSwtGzbxB4UumVM+JF4wFK4pk98fffCh++Uvf2mdgL43KdA+dBB0Jltt3dNOfkEG1KE+ouxqhaDVs7FdnEZju0NNE41Mrxq/cY0DfognQlk46DpO+FMXKMxL0xbKYTXo2uv+bqeQoKCMEGyglKKyREw+jCQcHME5wQvnL7Dlcg7zru4zJcqkDrjwxTXG981XX5uBcPKMvrYVAt440Z50V1xxxUqdRH1DWRkJwocQOg0AWAmqDaCYKApKqbKTgHITjit+K0IYzjUGQjmUxwtMPH3nORGfW1OeGiUYaVQeow03x2xZIQ/iqPw45QPyhAfyBzLcyZOedQcddJB9Hx4k5UdaDtXmYHK29mNc9XUUAWVVMyknQs+3sYuF+By6ovKJC6/EQdFYntUzFa7D5VriaDQhDddSUNWXQ7x5bsJ3GFF+6k84n2Fg2kla6L133nE7bLede/ThR9yCeZkDMqoDlc8SLqtpfJ/kiCOOcF998YX502HkAqPgeuutZ/VBHtXlpZyxkpGoQQR6GBotBOH4Q8UUjsoOeyUaMiSBa5UPxeOJQiz3P6GkeMpLZXOdBPmbXPzNN1Mkkb2kxYM/X4YMiXhJ0BSF/Dir6qabR7vmLVvYu/qkpVdnEcDeWfF5iC9GVj4FwZeuOFAirsjkJ0oC/hggeZKW3xzgMHDgQHfB+SPst0Y0jTJxEAb/nDs2fvz4rB8kOeLmqnttgPbg3k2gziHELyQ5gHg8kDiSkADD0JZtQGIIf1U+KcPqAsWSq+skaE7OzS7EyYg6NSUk9kqJZzVgPshVNunFm+Lw3jvEvYVcZENclFtlxtPJJXyTTTaxz0CTDn9cpmPimd+MMhgObzROmjjR7bfvQPtC1tNPPmX3EdSXeGof1Rk/5IMsJKuvvvjSTl3kwLkhhx9h+9AwinBbkPiLA6Wxs858vieeMNQMBR5D+XKdK31tgPLpbFR/RneuRfApXgHX6Alp4lhpdYufZELjsjypuS8IG1xxEER1hBGubpEnebEfiOF/xIgR7rgTjo9iZqDynxg33jbb8Zs0uYZ8eKR355CCLbp3s3uApBvenXfo7/R9EvIzQXo3vrql8pAN3yx87LHHMgYZ+ZMOZfvDiPNXev8dioN84J286ZTYs/Wb08+wG2Y2OMI3N/A0ID0eIwvTI8rgnXjAlIy4HGy9x157up/97Gdu/fXXz74CjJLMnT3H7mf4MM/DDz/sXnrpJctHhshmTGQeX8lKAvWBH0YTzJF2uOVft9q7+3Ek1bk24FvEOgTq1LJ5dORs9Pp2CGSqe0BAeyCTEIlGAiY+PcGGUyCLhLgmUwTD55BpjOoIolAj6b/9DrZdAlBRTRHiYDNeE19pboL5zuCpp566glCEfI0EhTMeo7Jw9Tv0B/wmjcDvOBSf8gCNdPNNo93f/vY3K4vwbA8XyR+QF6MWUPuQlvg0MkaDTCQX5InBWa/qeTIFj/LFT3kk8RgHcRiVUETK4rkJbySOHDkyezYXZcbrX5ugTsiNL3YxnWQTKRIWX6JNum7q/v73v2d1An7xD5FYAzUMZ0RxRi7ud999Z0M9Z0axssGXkIhTMvgG5ZPJ9LhtfI/JySNJhLJggKYsvsev7rJpohC9H4oRJzWEDCAJyBoyo/QujXX80BPcJZdcYkoPyEvl0viMOBBTI2rD1IfrFl5hda/D6EJHRvvxrIOvaTFNQxZKw4kvPM1nKsIULF+FltHSUzMaoYCMVCxTT/TTQKC6lwrwRr3Q0xme0GGuIa4h5MLv0ECQbxw5pSJL1EckJVhcem4aNV+h1gRQesqXcuVSRPzpcREEjba8mu1GWep5uU6SAf6QDKQiZVF61QcX7Ln3Xu6Bhx50G2/yMzdn3txsHSkXQyAe7UMa/KytfBzbpUv5nkefwIgSCCMOIC1paEdAHlCo2JQFsTTNiEp66g0xerBowTsjUjDSrbZqBxupuUchHumVDldUG6Cd4Yl6UW/jwRPykE4zkq7AD/GjB7khcmq5hJV1I8sU5F9K0AgIgYpWxA9hxC0GwsYOy42Xz2+Fw2NFkIIqHrzyu2vXru6OO+5wxx9/vCm1wslXii4FlLKqTJUPKT8ZIL8h3lVB2VEorlmChpAUn5A46phj7FN0lt6XJR60b0vlGFGOVzq+YvyrIUe6J598MluWAK+1CfgCkkkc5h/ZiMJ9TcwNUXHrpVgJplyRsuFW1PBh4yQ1Ui6ggCgkadh1wFd3OYuLT1TPmDXLtsvY/UhkNMo7VEj8wnzgRbzK2DSSkM4Mwcfj3oWDsbm5P+OMM+yQPd5tIS0jGL0yecah/MmZxYXjjjnWRhTKUnm4xKtrSI2kikBBpFQyAuuNopfHNOISLqWoqmKQFoVjdJCCsYDAhz559Zcv9nKvFd6zEF+GQXniEaXGHxCmcFsZ47c39IXeWPgAEVO8MfeNddf8/Vq3xlpr2hd1WRnsuvlm5se0i/hJgAfu9yiPex9+/+Y3v7HP3uEnnqoqi3JAaiRVhBQN3HnnnfZdeFbn2MoBcc02ExY5QoWoinKgYJShnp+0/G7SrKnbaZed7cEjH8w54YQT7Ek9CymMCsRHEU1hI2K0I71GE40euBgZr+Oec845dsN91VVX2RZ+RgwZKOlYGdx9993d9ddfb/lpVS2ERhg6CFbRuDeaN2eufXORAySA6lXXUO+NRL1oMYEiki/fOOeDPNOmTHHPT51qpGtWfQo1EuWPQqFYKK2UHiKcI1TPPvcc9+Cjj7iJk591I6++yh079ATXb4ft3cZdN3Ud1uhon7SD2nVY1Q6X2MSPCAP22N2devpp7uprr7Hv03Mc64knn2QfHqJMpkohr/ixAZQye2+7jbvqmqvtfXaW1TFKiPgYFfc3PIvgxl55dGi/qu0QYERRXCi8Ju9yRp02Egm5ItAAaojK4uYD8kBxyI+pFVOMUIFFilcISE9apde1fhMul3c9eFrPtpJzzz3X9l9xD8HIMNUbK8RhG3xg56GHHrJnAijtXnvt5TbddNPsOVlA+WsE0TWgPpTHgdmXX365jZS896P7MkaScJQwfpG792fn8kEHHGg38+RDfCGcDpYr6v1IogaXW90GUR7kl5S3/GsDKBuKC0n5cAHKS4+uUUgI+c0Hyg+Qjt8cmv2f//wnW0/KypUf8YnF1vqThp5oZ4rBj+KL93JGvTIShB0nIcmvEISKKGiUgriGagMomnhBYWUwocJKkcVjaCC4cYqD+Ny/YAjkofx69trajRx1pd3IswgQlwkwnoKbeWTHXjNGFMlRfJUz6qyRJDVwEoWNIL/qQEqmfKQ4caoNiI+K6iT+MB6udeNeUZo4uN/QlhfSkRdPq7mZ561EjCCpW9AUzEvMnv5zM08+LGww/YMf8qoteRWKOmskbdqvYt9c56a0NV+8XbV9Iq2yWgfXYfXV3GodV3et/E0sDVMdkF7EahN5w0tI8BPevEq5agLkC1GGygnLQgHlx2iAwofhlUF1IK0MDWLLPqPBlj/v4a68apTt3WJE0Qih8my7ur+ZZ0FAaNu6jfv1Kae6ZyZMtD1g4p18w+tygb+38hwFEJPssj3mmGNsrw+/uUm1MC9f1svpkdj4xykZVRF6HFXd4CiwzIgiEk8NEKuKAT/m5aw24VIG6eKoyi5g9ZBq1CRISQBx+F0dOZUTVGfkgOEAVq+OPGJI5lTKBQvMWJB3HJIfbcCZAiwy7LDjjrZZEiBXwpFddeRF+Ty3GjJkiNexySvkFbZH1803d/f9+/7M72hEi5daZ0cS3ZDyUA0XopeME42BwDAkXCluoUDA5EFjyk0qlzDihg1SX6BeXnVDruz+5bkRv6l7koEIkgWv/p588sl2jxLKSCNWuaDOGgmCpHFQUiAhx0m9HdcYiuIXChSDBiRfiPziZUIyEKDf9QXIk5mERmZ1PP22+4X728grsk/zkU8cyCJMz27lE088cYXnKOVkIKDOGglA2AgVwecSbBgHVLcB1Mi4Uo4kYDzEw6X8+mQkgNFSN/MAWXBzzodbeVaDnO38tBjMP5ILU2bkiMEwLeLZThheLig7I0Fo9ChCLuUiHgINe/IkkF5xFD8JxCMOrq6ToHxkfBXlJ7eieHURqhuGgRxoL2TCZkxcnsxfceVI17S5v/fz9cZPaZAD8ZEjhiYwyrPNfsKECdkRRWlKjfJrOX+zxctSPK2lp+JloCTiDCpeotJve5c9CE/y55p0YbiIRpMxVdRAYbyKFJ9wufXJQAB1CuWAsaiOGAS/eaJ/3XXX2bb65v6+EXlyDSQbgZRLFy6yE2AOOehgW/VS3HJAWa1uGSveSCiD/AcdcIDr27ev9VY1jUsuusjW/tXr0ehMzOKrWymSgdzQA+5DMBLdj6Dw3JzzLciKYOmj0Zm9Yk8+/VT2ALxCYLORIq1uld0SMF9GYqMcgp7nb+qYt4bDck2BV4CpB3VEwBhmaiRVAzpBWyE/ZIWhIEcOyzj15FNMvhgLbRvC9MuHccoM1+gBW/N5l6VQ3SqmkZRdqyNYGEbgCJjeBAWuaUJwAg0c/k6RH2gv2k2y4zfPsThFZfTo0dau7B5OAu1OOoyMVa8tt9wyCik9choJ1gx4Cw6l4eUbKgmKpUDKRy7lUK56bOvNo96lpgnQUGH58pcrmaRYGcgI/aDNwnZjlzHXfEPyr5dd6ho1aWw6BRTHjMcbB+kYATg+tVOnThanUJCn8ga52s5mRhE/XhPsL44KjYQClLkqBCorOB+Qlw5T0/CLknKtU00a+uGyCa4fAGuaqBONpFGE31zLcPmteqdYGZIP8sKVLLlGfvxm+sTyMAaBjHk6L73K6MNSN3z4cLuHUdpCQVryBOhYPnlxSwHFkdNIlKl6BVPeqFAqwHV1KmHgsDBPZmw+T2CWXQLC3OMENM9mpS1F1SB9QYcA7dyzZ087XIJplz7ljT6xmnWmN5CjjjrKy/7HNygLRVw/KaMiVKTLOVOSqSmvhwoUYZnVNhLSegMhnwWLFmbuRTBIH1QKSoKWIamvbkhT5A90SDMFdbTQ9v13cKOuvsrCeRWY7fZ/GDHCzhuzI328XjSpYFtLVUC5GKIMNg50mDDi5dLpnKtbHME/ePBgUw6fg4UxLcHKWd1iwyAnePTo0aMgY7GDpX05HBL2/NRpJjzyLydQL2jHnXfKClO9Yor8gPJpuqNZCcDvs88+c+++/Y59pGiDDTaw+xUMh5Edtzr6YOUuXmIH5r395pvZBSFAO6ptt+rdyw7XEJLaN9FIwCsvvWyHHMAsD/ZkkWZxPnO2IPzr9tvcgAEDLI1VLio8H6jQxUv8dKbRj4cVlCOos8mhTPkrV0iX1LYaVZi6SpfohLWSCSye70AbNWxUkImEZfLaMA81P/vkEyuDNqQcDAaXOL/wo9qNN96Y5VEUYqXpliKsueaaViEVapbtyUDlfCGcRA6sYl4AQG5loBSIozZJLyUsR0KguCmqBslPbYs+Ae3gtlmKB670y+IVaCAhbCTxushMhWvxEhoR4XybXiA8CYn3JGTAUTMcMkDFKARSmCr48ssvZ5dNFZY1pBQpSggUnvOrmfGgk9JR9FU6zTUHvnOdy0BATiPBEPh0AIm5lj8E6A34dDFDJ4WEjKRIUWqgp/fff3+2E0dfBekrurvxxhvbVCwcZeJINBIpPN/yYFsI1xgKw5PCyPDrr7+2zxjLMsPpWYoUpQQLS2PGjMnqLfoJpKP85hXkLbbYwnS6ykYCODG8e48tzcrYU6N9NWSIS8FYIisDXAPcioatFClqAqi2jECKzjdJ6MCB7n3MOLjwOgz9bNNN7VN8jDK5DATkNBIS8eUkbSvAOGQgusZKb7v1X+69d94145CxpEhRm1gWbZliagV4an7vnXe59u3a2SKTGUfkhtv199t/kF0DfqPPSZ18TiMhAV9X5XBmLDHJAEjMBsQbbrjBRhziyaJTpKgtaBRQJ86n7jgET4ov3ZURaGThvfx8kHu65TPD6tgmACggCZyMce/dd9tDIdalYTRFitqEjAR9nTVrln3PBT8IPabjlssbkNyvdO/ePe9NlIkaLQPhpJFu3bq5jh07ZhmJgxsh5nSHH364rUmne5xS1DbomFF8dJG3IflkITrM7AaEHbymZHT+GlEqQ6KRYBAYCJbXrv0q7vAhR9h7AUykoNBCuYaZOd6COSeLa/wI86FZihsZ4SlSVAXoUEjyYzrFCHG3n9GMGjXKjAY/3Sagq0AuK1r77rtv3rOeCqdbEBkddthh7uc9tzIrhCkslhGDEQSj0OrAIw89ZF875WOWAAbx180SIA/NEVOkqCo0OuCqQ2aPFnsNLzh/RGYHh/fT/QeEzuGid7wZyYET1ukvyRgQVBFyTrc0LAFuzvlgDIVQOGGMNDCJtUrxeULPZ8TOPfscO51Pr/zKohk9MDooHUlSFAL0D12io0aP0L1/33e/deSmn5HCy4AAuso1aXpvu60tRnGSS9JHRJOw0gZHgQJlZRQIc0f/6ij7ahHfnMAfJilYH9u3LQD+N3FZf77jrjvtqT1GglHgT3FyK7PgFCniQI/UgaOjvKR11x0ZPZs/d67pJMBlBoPucb/CNitexeBbLc1btsjGy0cHE0cSFJhMpMgYAu7VV1+d2dLsC5Oi80Se6RbDF34csc8bZp9++qnbcYf+NkfkRoowIR1FUlQGdCuRlvo7XE/jHx/nDhi0vxt77xjXtnVrMxDDMt/ne8KANIK0bdvWVr3OOuss+w6kGdoyP7PJ7kWvGDlHEjEVt7RJE59xRx55pH3TnZslwhlJMBQMAeuVlfL2GR+T50R35oHs7efhJKOOpmq1ieW+Kn5srPYO058apAc5VKVGobJRekaEd998y1188cVu8uTJpkfSU3QP5bfO3RsRp9nzejDfoSct07EL/njhj8bj8+Y1De5hKkNOI4lDzMAIx1EOHTrUbt5bNGpihoHBMN2yL7Z6RkLw4j9DJOcpcQpGv379XI+tfm6fMcNPoxbpim045CtDx0jgn63YKfIH7UIbcY9JOzKXj3ee1UXYTrQRREf6xRdfuBdffNGMgqn+nBkzbdYSTuFx4QsdxJUe4Y+R7Lfffu6yyy4z3SwEeRsJBcqiAUfEYNHLF2fmhzCHheLGBcjkyoTs/Rl1tDJGpdjPry35xIkbWDHAPjQEzmkdGKnnJApJURmkHrjz585zw4YNcx9//LG1VzEhnaEcdADiq8J8mxF9oTymTTy8Rk/QM/zooNEl0qOjpOO35eHz4qk6h3hzBCv+haCgkQQGsdQHH3zQnXn6GSswB9NJAiQtFVEevqZW2TBM4cUE+VmeDRvYV5m23nrrgoX1U4TagzbjGFIOxC72Q2OVIR0Qsm3nIX/ud/FjBEHn6JjhBT/0CcLv++nT7bwvvhbMtCued1WQeOOeBJhQIZoS2Xmv11/v1u7c2ax2EdZdgQIiaPKwUcP/9hZqZEz4MAQgv2JR40hwbJlh5AoXEFJUDikqpN90hEmyLpRo/1AHRArHn3Dug6U/gLbEQGhfrqWfPKfjC8M3jr4pc9/ivfO9SU+C8ZYPYECjBMoOU1Cffn3dXffcbdvq6a2xbiEUMEQepLWRxEOVwoXi8YtB8IPL6KGHRynyh9oGRdQMIi7jYpGgMnUNNGoAPQNBj9BH4nANj1zfddddbvjZZ2V1NMyvEFTJSOiJgUYSAGOsUbMlgG0pHddcw831N1aMLPqYCwdHKC5My1VFZTRhhYpFAJeykqaBKfIDbYQc5dYkCbQZxoG+QDaC+XAZBgQ/zGA4mmjgoEHusXHjXL/ttluhrbkHrc59aN5GkgRVSAyxzDZ27Fhb+WLVCouXEfCQkRe3qAyVWhDNaam8hEFPVWzAY5g/1ynyB/KSYhajV84F6QnliVSu2oxHCnS4dKmQOmJ29PIpOhaSeIhdbD2qlpFQKRkIzz+oFKesnHXO2e7Bhx9yvz1ruD0jmTNvrs0dNQJRad08SziARig2JGDxWROGWJ+hTkxy43dNGAltnzSTULm0H2WjKzzA5nrPPfe0D5PeefdddtYwq5ic3cW0v5jw90WRFhUAemdBgiM7VQbiARBbAdiANm3aNDuQjGVgyG7afFz1FghE+RQTevWYgwG27t2rRsqor5B64M6dPcftscce7pNPPqle71oBaBuVif6gHxCdcOu2bW0Jv0+fPrb/qkuXLqaDZhgRSCNjKxaqZSQkhSlcGFNWMK6eW3FgWpV+//337TiiTz78yD4LzcdziKf0xYQJy5eJsY4cOdJ1WqdzlrcUlUNtQgfGblsOs6aDY/9esaAyaCsZBW3UuXNnO92RA0m6du3qVll1VRsl1JmGM48wDxlKsVAtI8kXVSnClLqISCq72GWkKD5y6Uwp2q6mRs0UKeoNamUkSZGiLiMdSVKkqASpkaRIUQlSI0mRohKkRpIiRYVw7v8BpMqaqXRsXCcAAAAASUVORK5CYII=;" vertex="1" parent="1">
          <mxGeometry x="250.74" y="365" width="39.41" height="40" as="geometry" />
        </mxCell>
        <mxCell id="XQlcI28_08daEvwIUnFz-21" value="Qr code reader" style="text;html=1;strokeColor=none;fillColor=none;align=center;verticalAlign=middle;whiteSpace=wrap;rounded=0;" vertex="1" parent="1">
          <mxGeometry x="230.42" y="405" width="73.09" height="30" as="geometry" />
        </mxCell>
        <mxCell id="XQlcI28_08daEvwIUnFz-38" value="" style="endArrow=classic;startArrow=classic;html=1;rounded=0;" edge="1" parent="1" source="XQlcI28_08daEvwIUnFz-9" target="XQlcI28_08daEvwIUnFz-13">
          <mxGeometry width="50" height="50" relative="1" as="geometry">
            <mxPoint x="326" y="345" as="sourcePoint" />
            <mxPoint x="376" y="295" as="targetPoint" />
          </mxGeometry>
        </mxCell>
        <mxCell id="XQlcI28_08daEvwIUnFz-39" value="" style="endArrow=classic;startArrow=classic;html=1;rounded=0;" edge="1" parent="1" source="XQlcI28_08daEvwIUnFz-9" target="XQlcI28_08daEvwIUnFz-18">
          <mxGeometry width="50" height="50" relative="1" as="geometry">
            <mxPoint x="184.48131782945734" y="364" as="sourcePoint" />
            <mxPoint x="168.01496124031007" y="380" as="targetPoint" />
          </mxGeometry>
        </mxCell>
        <mxCell id="XQlcI28_08daEvwIUnFz-40" value="" style="endArrow=classic;startArrow=classic;html=1;rounded=0;entryX=0.5;entryY=0;entryDx=0;entryDy=0;" edge="1" parent="1" source="XQlcI28_08daEvwIUnFz-9" target="XQlcI28_08daEvwIUnFz-20">
          <mxGeometry width="50" height="50" relative="1" as="geometry">
            <mxPoint x="184.48131782945734" y="364" as="sourcePoint" />
            <mxPoint x="168.01496124031007" y="380" as="targetPoint" />
          </mxGeometry>
        </mxCell>
      </root>
    </mxGraphModel>
  </diagram>
</mxfile>
